<?xml version="1.0" encoding="UTF-8"?> <svg xmlns="http://www.w3.org/2000/svg" width="24" height="22" viewBox="0 0 24 22" fill="none"><path d="M21.923 8.42553H19.6159L14.0088 4.14571C14.3404 3.71058 14.5384 3.16572 14.5384 2.57447C14.5384 1.15493 13.3997 0 11.9999 0C10.6002 0 9.46147 1.15488 9.46147 2.57447C9.46147 3.16568 9.65947 3.71058 9.99106 4.14566L4.38388 8.42553H2.07693C0.931686 8.42553 0 9.37048 0 10.5319V19.8936C0 21.0551 0.931686 22 2.07693 22H21.9231C23.0683 22 24 21.0551 24 19.8936V10.5319C24 9.37048 23.0683 8.42553 21.923 8.42553ZM11.1669 5.0058C11.428 5.09812 11.7082 5.14894 12 5.14894C12.2918 5.14894 12.5719 5.09812 12.8331 5.0058L17.3134 8.42553H6.68652L11.1669 5.0058ZM7.15381 17.0851C7.15381 17.9884 6.42918 18.7234 5.53846 18.7234H4.6154C3.72463 18.7234 2.99999 17.9884 2.99999 17.0851V13.3404C2.99999 12.4371 3.72463 11.7021 4.6154 11.7021H5.53846C6.42918 11.7021 7.15381 12.437 7.15381 13.3404V17.0851ZM11.7692 14.2766C11.7692 15.1799 11.0446 15.9149 10.1538 15.9149H8.99998V18.0213C8.99998 18.4091 8.69 18.7234 8.30769 18.7234C7.92538 18.7234 7.61539 18.409 7.61539 18.0213V13.3404C7.61539 12.4371 8.34003 11.7021 9.23079 11.7021H10.1539C11.0446 11.7021 11.7693 12.437 11.7693 13.3404V14.2766H11.7692ZM14.7692 14.5106C15.1516 14.5106 15.4615 14.825 15.4615 15.2127C15.4615 15.6005 15.1515 15.9149 14.7692 15.9149H13.6154V17.3191H15.6923C16.0747 17.3191 16.3846 17.6335 16.3846 18.0212C16.3846 18.4089 16.0746 18.7233 15.6923 18.7233H12.9231C12.5407 18.7233 12.2308 18.4089 12.2308 18.0212V12.4042C12.2308 12.0164 12.5408 11.7021 12.9231 11.7021H15.6923C16.0747 11.7021 16.3846 12.0165 16.3846 12.4042C16.3846 12.792 16.0746 13.1063 15.6923 13.1063H13.6154V14.5106H14.7692V14.5106ZM21 18.0212C21 18.3469 20.7792 18.6298 20.4667 18.7046C20.4136 18.7173 20.3602 18.7235 20.3075 18.7235C20.0499 18.7235 19.8076 18.577 19.6884 18.3353L18.2307 15.3785V18.0212C18.2307 18.409 17.9207 18.7234 17.5384 18.7234C17.1561 18.7234 16.8461 18.409 16.8461 18.0212V12.4042C16.8461 12.0786 17.0669 11.7957 17.3794 11.7209C17.6919 11.646 18.0141 11.799 18.1577 12.0903L19.6154 15.047V12.4043C19.6154 12.0165 19.9254 11.7022 20.3077 11.7022C20.69 11.7022 21 12.0165 21 12.4042V18.0212Z" fill="#1DAC1B"></path></svg> 