<?xml version="1.0" encoding="UTF-8"?> <svg xmlns="http://www.w3.org/2000/svg" width="16" height="24" viewBox="0 0 16 24" fill="none"><path d="M8 0C3.58888 0 0 3.58889 0 8.00002C0 9.32423 0.331077 10.6372 0.960467 11.8018L7.56252 23.7422C7.65041 23.9014 7.81789 24 8 24C8.18211 24 8.34959 23.9014 8.43748 23.7422L15.042 11.7978C15.6689 10.6372 16 9.32419 16 7.99997C16 3.58889 12.4111 0 8 0ZM8 12C5.79444 12 4.00002 10.2056 4.00002 8.00002C4.00002 5.79445 5.79444 4.00003 8 4.00003C10.2056 4.00003 12 5.79445 12 8.00002C12 10.2056 10.2056 12 8 12Z" fill="#23C229"></path></svg> 