<?xml version="1.0" encoding="UTF-8"?> <svg xmlns="http://www.w3.org/2000/svg" width="53" height="44" viewBox="0 0 53 44" fill="none"><path d="M52.3098 0.901282C52.0913 0.318622 51.8728 0.172976 51.5815 0.100143C50.7803 -0.191186 49.542 0.245817 49.542 0.245817C49.542 0.245817 3.58153 16.7059 0.959377 18.5267C0.376676 18.8909 0.231003 19.1822 0.0853282 19.4007C-0.351697 20.7117 1.03222 21.2943 1.03222 21.2943L12.9047 25.1545C12.9047 25.1545 13.3418 25.2273 13.4874 25.1545C16.1824 23.4793 40.583 8.03888 41.9669 7.52905C42.1854 7.45622 42.3311 7.52902 42.3311 7.67468C41.7484 9.64116 20.5527 28.5048 20.5527 28.5048C20.5527 28.5048 20.4798 28.5776 20.407 28.7233L19.3144 40.4493C19.3144 40.4493 18.8774 44.018 22.4465 40.4493C24.9958 37.9001 27.4722 35.788 28.6376 34.7683C32.7165 37.6088 37.0868 40.6678 38.9806 42.3429C39.9275 43.1441 40.7287 43.2897 41.3842 43.2897C43.2052 43.2169 43.715 41.2504 43.715 41.2504C43.715 41.2504 52.0913 7.52905 52.3827 3.01344C52.3827 2.57644 52.4555 2.2851 52.4555 1.99377C52.4555 1.48394 52.3827 1.11978 52.3098 0.901282Z" fill="white"></path></svg> 