<?xml version="1.0" encoding="UTF-8"?> <svg xmlns="http://www.w3.org/2000/svg" width="63" height="63" viewBox="0 0 63 63" fill="none"><path fill-rule="evenodd" clip-rule="evenodd" d="M53.5356 9.17686C47.6358 3.27743 39.8422 0.072802 31.4658 -3.05176e-05C14.2762 -3.05176e-05 0.291368 13.9838 0.291368 31.1723C0.291368 36.6347 1.74808 42.0243 4.44307 46.7584L0 62.9272L16.5341 58.5573C21.1229 61.0336 26.2215 62.3446 31.4658 62.3446C48.6555 62.3446 62.6403 48.3607 62.6403 31.1723C62.6403 22.8694 59.3626 15.0763 53.5356 9.17686ZM31.4658 57.1006C26.8042 57.1006 22.2154 55.8625 18.2822 53.459L17.3353 52.8764L7.50226 55.4255L10.1244 45.8844L9.46888 44.9376C6.84673 40.7862 5.53564 36.052 5.53564 31.1723C5.53564 16.8971 17.1897 5.24391 31.4658 5.24391C38.3854 5.24391 44.868 7.93871 49.8209 12.8185C54.701 17.6983 57.396 24.2532 57.396 31.1723C57.396 45.5203 45.742 57.1006 31.4658 57.1006ZM45.6692 37.7272C44.8679 37.363 41.0804 35.4694 40.352 35.1781C39.6237 34.8867 39.1138 34.8139 38.6039 35.5422C38.094 36.3434 36.5644 38.0914 36.1274 38.6012C35.6904 39.111 35.2534 39.1838 34.4522 38.8197C33.6509 38.4555 31.1745 37.5815 28.1881 34.9596C25.8573 32.9203 24.3278 30.3711 23.8179 29.57C23.3809 28.7688 23.7451 28.4046 24.1821 27.9676C24.5463 27.6035 24.9833 27.0937 25.3475 26.5838C25.7117 26.1468 25.8574 25.7827 26.1487 25.2728C26.4401 24.763 26.2944 24.326 26.0758 23.889C25.8573 23.5249 24.3277 19.6647 23.6722 18.1353C23.0167 16.6058 22.3611 16.8243 21.9241 16.8243C21.4871 16.8243 20.9772 16.8243 20.3945 16.8243C19.8847 16.8243 19.0106 17.0428 18.2822 17.7711C17.5538 18.5723 15.5873 20.4659 15.5873 24.2532C15.5873 28.1133 18.3551 31.8278 18.7921 32.3376C19.1563 32.8474 24.2549 40.7133 32.1213 44.1365C34.0151 44.9376 35.3991 45.4474 36.5645 45.8116C38.4582 46.3943 40.1335 46.3214 41.4446 46.1029C42.9742 45.8844 46.0333 44.2093 46.6889 42.3885C47.3444 40.5677 47.3444 39.0382 47.1259 38.674C46.9802 38.3099 46.4704 38.0914 45.6692 37.7272Z" fill="#23C229"></path></svg> 