<?xml version="1.0" encoding="UTF-8"?> <svg xmlns="http://www.w3.org/2000/svg" xmlns:xlink="http://www.w3.org/1999/xlink" version="1.1" id="Capa_1" x="0px" y="0px" viewBox="0 0 65 65" style="enable-background:new 0 0 65 65;" xml:space="preserve"> <style type="text/css"> .st0{fill:url(#SVGID_1_);} .st1{fill:url(#SVGID_00000140008264784430317790000002614051547354651791_);} .st2{fill:url(#SVGID_00000181770704908280359080000014032391935469623738_);} .st3{fill:url(#SVGID_00000130645102544935021210000016685826168562853306_);} .st4{fill:url(#SVGID_00000119826440010305936060000006698400168343806349_);} .st5{fill:url(#SVGID_00000088105380086041485560000016071411686834481580_);} .st6{fill:url(#SVGID_00000070087478812864337300000015657405974361172096_);} .st7{fill:url(#SVGID_00000012444333295369631550000009049542258696815000_);} </style> <g> <linearGradient id="SVGID_1_" gradientUnits="userSpaceOnUse" x1="7.0843" y1="32.39" x2="48.1017" y2="32.39" gradientTransform="matrix(1 0 0 -1 0 64.89)"> <stop offset="0" style="stop-color:#FFA1AE"></stop> <stop offset="1" style="stop-color:#FF4565"></stop> </linearGradient> <path class="st0" d="M32.68,0C18.62-0.1,7.19,11.27,7.19,25.31c0,5.71,1.89,10.98,5.08,15.22l16.37,22.5 c1.91,2.62,5.81,2.62,7.72,0l16.37-22.5c3.15-4.18,5.04-9.38,5.08-15.01C57.93,11.59,46.61,0.1,32.68,0z M32.5,39.24 c-7.69,0-13.93-6.23-13.93-13.93c0-7.69,6.23-13.93,13.93-13.93s13.93,6.23,13.93,13.93C46.43,33.01,40.19,39.24,32.5,39.24 L32.5,39.24z"></path> <linearGradient id="SVGID_00000037669997828134417120000011732525877611994760_" gradientUnits="userSpaceOnUse" x1="45.0117" y1="27.0641" x2="21.4163" y2="50.6594" gradientTransform="matrix(1 0 0 -1 0 64.89)"> <stop offset="0" style="stop-color:#FFA1AE"></stop> <stop offset="1" style="stop-color:#FF4565"></stop> </linearGradient> <path style="fill:url(#SVGID_00000037669997828134417120000011732525877611994760_);" d="M32.5,7.44c-9.87,0-17.88,8-17.88,17.88 c0,9.87,8,17.88,17.88,17.88s17.88-8,17.88-17.88C50.38,15.44,42.37,7.44,32.5,7.44L32.5,7.44z M32.5,37.87 c-6.93,0-12.55-5.62-12.55-12.56s5.62-12.55,12.55-12.55c6.93,0,12.55,5.62,12.55,12.55C45.05,32.25,39.43,37.87,32.5,37.87z"></path> <linearGradient id="SVGID_00000134959112889118730520000009982005074049973123_" gradientUnits="userSpaceOnUse" x1="39.1257" y1="26.2605" x2="49.0763" y2="18.1894" gradientTransform="matrix(1 0 0 -1 0 64.89)"> <stop offset="0" style="stop-color:#FE0364;stop-opacity:0"></stop> <stop offset="0.2343" style="stop-color:#F90362;stop-opacity:0.234"></stop> <stop offset="0.5173" style="stop-color:#EA035B;stop-opacity:0.517"></stop> <stop offset="0.8243" style="stop-color:#D20250;stop-opacity:0.824"></stop> <stop offset="1" style="stop-color:#C00148"></stop> </linearGradient> <path style="fill:url(#SVGID_00000134959112889118730520000009982005074049973123_);" d="M45.05,25.31 c0,6.93-5.62,12.56-12.55,12.56s-12.55-5.62-12.55-12.56c0-1.8,0.38-3.51,1.07-5.06H7.69c-0.33,1.64-0.51,3.33-0.51,5.06 c0,5.71,1.89,10.98,5.08,15.22l16.37,22.5c1.91,2.62,5.81,2.62,7.72,0l16.37-22.5c3.15-4.18,5.04-9.38,5.08-15.01 c0.01-1.81-0.16-3.57-0.51-5.27H43.99C44.67,21.8,45.05,23.51,45.05,25.31z"></path> <linearGradient id="SVGID_00000098212523423516776750000005849976248984129195_" gradientUnits="userSpaceOnUse" x1="42.572" y1="30.9725" x2="55.6184" y2="28.9824" gradientTransform="matrix(1 0 0 -1 0 64.89)"> <stop offset="0" style="stop-color:#FE0364;stop-opacity:0"></stop> <stop offset="0.2343" style="stop-color:#F90362;stop-opacity:0.234"></stop> <stop offset="0.5173" style="stop-color:#EA035B;stop-opacity:0.517"></stop> <stop offset="0.8243" style="stop-color:#D20250;stop-opacity:0.824"></stop> <stop offset="1" style="stop-color:#C00148"></stop> </linearGradient> <path style="fill:url(#SVGID_00000098212523423516776750000005849976248984129195_);" d="M32.68,0c-1.49-0.01-2.95,0.11-4.37,0.35 v13.13c1.31-0.46,2.72-0.72,4.19-0.72c6.93,0,12.55,5.62,12.55,12.55S39.43,37.87,32.5,37.87c-1.47,0-2.88-0.25-4.19-0.72v25.43 l0.33,0.45c1.91,2.62,5.81,2.62,7.72,0l16.37-22.5c3.15-4.18,5.04-9.38,5.08-15.01C57.93,11.59,46.61,0.1,32.68,0z"></path> <linearGradient id="SVGID_00000179604057619068884130000017777038718893849773_" gradientUnits="userSpaceOnUse" x1="48.7593" y1="38.59" x2="57.1621" y2="41.5752" gradientTransform="matrix(1 0 0 -1 0 64.89)"> <stop offset="0" style="stop-color:#FE0364;stop-opacity:0"></stop> <stop offset="0.2343" style="stop-color:#F90362;stop-opacity:0.234"></stop> <stop offset="0.5173" style="stop-color:#EA035B;stop-opacity:0.517"></stop> <stop offset="0.8243" style="stop-color:#D20250;stop-opacity:0.824"></stop> <stop offset="1" style="stop-color:#C00148"></stop> </linearGradient> <path style="fill:url(#SVGID_00000179604057619068884130000017777038718893849773_);" d="M32.68,0c-1.49-0.01-2.95,0.11-4.37,0.35 v13.13c1.31-0.46,2.72-0.72,4.19-0.72c6.93,0,12.55,5.62,12.55,12.55S39.43,37.87,32.5,37.87c-1.47,0-2.88-0.25-4.19-0.72v25.43 l0.33,0.45c1.91,2.62,5.81,2.62,7.72,0l16.37-22.5c3.15-4.18,5.04-9.38,5.08-15.01C57.93,11.59,46.61,0.1,32.68,0z"></path> <g> <g> <linearGradient id="SVGID_00000121980443241544698130000018231363292861333141_" gradientUnits="userSpaceOnUse" x1="27.7785" y1="44.2968" x2="35.8355" y2="36.2398" gradientTransform="matrix(1 0 0 -1 0 64.89)"> <stop offset="0" style="stop-color:#F5FBFF"></stop> <stop offset="1" style="stop-color:#DBD5EF"></stop> </linearGradient> <circle style="fill:url(#SVGID_00000121980443241544698130000018231363292861333141_);" cx="32.5" cy="25.31" r="9.07"></circle> <linearGradient id="SVGID_00000093165367301739442820000015637521078633885882_" gradientUnits="userSpaceOnUse" x1="32.4997" y1="40.0436" x2="32.4997" y2="30.1494" gradientTransform="matrix(1 0 0 -1 0 64.89)"> <stop offset="0" style="stop-color:#DBD5EF;stop-opacity:0"></stop> <stop offset="0.2853" style="stop-color:#D9D2EE;stop-opacity:0.285"></stop> <stop offset="0.4739" style="stop-color:#D4C9E9;stop-opacity:0.474"></stop> <stop offset="0.6346" style="stop-color:#CBBAE2;stop-opacity:0.635"></stop> <stop offset="0.7795" style="stop-color:#BFA5D7;stop-opacity:0.78"></stop> <stop offset="0.9126" style="stop-color:#AF8ACA;stop-opacity:0.913"></stop> <stop offset="1" style="stop-color:#A274BF"></stop> </linearGradient> <path style="fill:url(#SVGID_00000093165367301739442820000015637521078633885882_);" d="M23.43,25.31 c0,5.01,4.06,9.07,9.07,9.07c5.01,0,9.07-4.06,9.07-9.07c0-1.09-0.19-2.13-0.54-3.09H23.97C23.62,23.19,23.43,24.23,23.43,25.31 L23.43,25.31z"></path> <linearGradient id="SVGID_00000043441902026083242470000006407663234125133445_" gradientUnits="userSpaceOnUse" x1="31.9108" y1="40.0835" x2="39.8145" y2="33.2657" gradientTransform="matrix(1 0 0 -1 0 64.89)"> <stop offset="0" style="stop-color:#DBD5EF;stop-opacity:0"></stop> <stop offset="0.2853" style="stop-color:#D9D2EE;stop-opacity:0.285"></stop> <stop offset="0.4739" style="stop-color:#D4C9E9;stop-opacity:0.474"></stop> <stop offset="0.6346" style="stop-color:#CBBAE2;stop-opacity:0.635"></stop> <stop offset="0.7795" style="stop-color:#BFA5D7;stop-opacity:0.78"></stop> <stop offset="0.9126" style="stop-color:#AF8ACA;stop-opacity:0.913"></stop> <stop offset="1" style="stop-color:#A274BF"></stop> </linearGradient> <path style="fill:url(#SVGID_00000043441902026083242470000006407663234125133445_);" d="M26.08,31.73 c3.54,3.54,9.29,3.54,12.83,0c3.54-3.54,3.54-9.29,0-12.83c-0.77-0.77-1.64-1.37-2.57-1.8L24.28,29.16 C24.72,30.09,25.32,30.96,26.08,31.73L26.08,31.73z"></path> </g> </g> </g> </svg> 