<?xml version="1.0" encoding="UTF-8"?> <svg xmlns="http://www.w3.org/2000/svg" xmlns:xlink="http://www.w3.org/1999/xlink" id="Layer_1" viewBox="0 0 512 512"><linearGradient id="lg1"><stop offset="0" stop-color="#bbec6c"></stop><stop offset="1" stop-color="#81b823"></stop></linearGradient><linearGradient id="SVGID_1_" gradientTransform="matrix(.707 .707 -.707 .707 220.649 -68.968)" gradientUnits="userSpaceOnUse" x1="254.785" x2="254.785" xlink:href="#lg1" y1="263.907" y2="400.991"></linearGradient><linearGradient id="SVGID_00000081608120516049640360000012740473971869905307_" gradientTransform="matrix(.707 .707 -.707 .707 220.649 -68.968)" gradientUnits="userSpaceOnUse" x1="254.785" x2="254.785" xlink:href="#lg1" y1="321.907" y2="260.007"></linearGradient><linearGradient id="lg2"><stop offset="0" stop-color="#026841" stop-opacity="0"></stop><stop offset=".2391" stop-color="#0a6644" stop-opacity=".239"></stop><stop offset=".6113" stop-color="#20604d" stop-opacity=".611"></stop><stop offset="1" stop-color="#3e5959"></stop></linearGradient><linearGradient id="SVGID_00000026122082461873577380000015746528281596782497_" gradientTransform="matrix(.707 .707 -.707 .707 220.649 -68.968)" gradientUnits="userSpaceOnUse" x1="254.785" x2="254.785" xlink:href="#lg2" y1="342.474" y2="406.981"></linearGradient><linearGradient id="SVGID_00000039820037201723495900000006443184937891445654_" gradientTransform="matrix(.707 .707 -.707 .707 220.649 -68.968)" gradientUnits="userSpaceOnUse" x1="413.915" x2="483.844" xlink:href="#lg2" y1="302.172" y2="367.165"></linearGradient><linearGradient id="SVGID_00000176033827464917792440000015855109888990021516_" gradientTransform="matrix(.707 .707 -.707 .707 220.649 -68.968)" gradientUnits="userSpaceOnUse" x1="66.83" x2="66.83" xlink:href="#lg1" y1="144.668" y2="255.612"></linearGradient><linearGradient id="SVGID_00000179610744641775458440000016981357203999504561_" gradientTransform="matrix(.707 .707 -.707 .707 220.649 -68.968)" gradientUnits="userSpaceOnUse" x1="66.83" x2="66.83" xlink:href="#lg2" y1="147.495" y2="304.219"></linearGradient><linearGradient id="SVGID_00000042718417178221001070000005873648006333663420_" gradientTransform="matrix(.707 .707 -.707 .707 220.649 -68.968)" gradientUnits="userSpaceOnUse" x1="66.83" x2="66.83" xlink:href="#lg2" y1="120.346" y2="234.293"></linearGradient><linearGradient id="SVGID_00000179612212456981041180000003465177252043488671_" gradientTransform="matrix(.707 .707 -.707 .707 220.649 -68.968)" gradientUnits="userSpaceOnUse" x1="442.736" x2="442.736" xlink:href="#lg1" y1="144.668" y2="255.612"></linearGradient><linearGradient id="SVGID_00000173139399848013844370000013253804634563748241_" gradientTransform="matrix(.707 .707 -.707 .707 220.649 -68.968)" gradientUnits="userSpaceOnUse" x1="442.736" x2="442.736" xlink:href="#lg2" y1="147.495" y2="304.219"></linearGradient><linearGradient id="SVGID_00000038371278222476474400000004461034388507041455_" gradientTransform="matrix(.707 .707 -.707 .707 220.649 -68.968)" gradientUnits="userSpaceOnUse" x1="442.736" x2="442.736" xlink:href="#lg2" y1="120.346" y2="234.293"></linearGradient><linearGradient id="SVGID_00000004529127122732463790000006124241369699840179_" gradientTransform="matrix(.707 .707 -.707 .707 220.649 -68.968)" gradientUnits="userSpaceOnUse" x1="498.068" x2="544.139" xlink:href="#lg2" y1="265.569" y2="272.151"></linearGradient><linearGradient id="lg3"><stop offset="0" stop-color="#fef0ae"></stop><stop offset="1" stop-color="#fbc56d"></stop></linearGradient><linearGradient id="SVGID_00000004504737521391924310000016104917516298502529_" gradientTransform="matrix(.707 -.707 .707 .707 -76.47 385.397)" gradientUnits="userSpaceOnUse" x1="404.804" x2="431.953" xlink:href="#lg3" y1="143.594" y2="143.594"></linearGradient><linearGradient id="SVGID_00000053535328996443574300000013205784425479630767_" gradientTransform="matrix(.707 -.707 .707 .707 -76.47 385.397)" gradientUnits="userSpaceOnUse" x1="466.506" x2="497.046" xlink:href="#lg3" y1="143.594" y2="143.594"></linearGradient><linearGradient id="SVGID_00000178915301464769755340000013015755003606115997_" gradientTransform="matrix(.707 -.707 .707 .707 -76.47 385.397)" gradientUnits="userSpaceOnUse" x1="533.967" x2="571.135" xlink:href="#lg3" y1="143.594" y2="143.594"></linearGradient><g><g><path d="m474.018 453c-78.667 78.667-206.214 78.667-284.881 0l-130.136-130.137c-78.667-78.667-78.667-206.214 0-284.881l149.214 149.214-31.077 31.077c-15.1 15.1-15.1 39.581 0 54.681l61.909 61.909c15.1 15.1 39.581 15.1 54.681 0l31.077-31.077z" fill="url(#SVGID_1_)"></path><g><path d="m141.636 253.775c-15.1 15.1-15.1 39.581 0 54.681l61.909 61.909c15.1 15.1 39.581 15.099 54.681 0l35.501-35.501c-15.1 15.1-39.581 15.1-54.681 0l-61.909-61.909c-15.1-15.1-15.1-39.581 0-54.681z" fill="url(#SVGID_00000081608120516049640360000012740473971869905307_)"></path></g><path d="m267.039 346.173c-10.112.17-20.276-3.594-27.992-11.309l-61.909-61.909c-7.716-7.716-11.479-17.881-11.309-27.992l-147.843-147.842c-33.691 74.23-20.028 164.7 41.015 225.743l130.136 130.136c61.042 61.042 151.513 74.705 225.743 41.015z" fill="url(#SVGID_00000026122082461873577380000015746528281596782497_)"></path><path d="m293.727 334.864c-15.1 15.1-39.581 15.1-54.681 0l-30.955-30.955-84.023 84.023 65.069 65.068c78.667 78.667 206.214 78.667 284.881 0l-149.213-149.214z" fill="url(#SVGID_00000039820037201723495900000006443184937891445654_)"></path><path d="m134.825 187.194-75.827-75.827c-20.266-20.266-20.266-53.123 0-73.388 20.266-20.266 53.123-20.266 73.388 0l75.827 75.827c20.266 20.266 20.266 53.123 0 73.388-20.265 20.266-53.122 20.266-73.388 0z" fill="url(#SVGID_00000176033827464917792440000015855109888990021516_)"></path><g><path d="m143.949 169.95-67.705-67.705c-14.486-14.486-14.486-37.973 0-52.459 14.486-14.486 37.973-14.486 52.459 0l67.705 67.705c14.486 14.486 14.486 37.973 0 52.459-14.487 14.486-37.973 14.486-52.459 0z" fill="url(#SVGID_00000179610744641775458440000016981357203999504561_)"></path><path d="m196.407 117.491-67.705-67.705c-14.486-14.486-37.973-14.486-52.459 0-1.634 1.634-3.073 3.387-4.339 5.224 14.45-9.953 34.382-8.514 47.234 4.339l67.705 67.705c12.852 12.852 14.292 32.784 4.339 47.234 1.837-1.265 3.59-2.705 5.224-4.339 14.487-14.485 14.487-37.972.001-52.458z" fill="url(#SVGID_00000042718417178221001070000005873648006333663420_)"></path></g><path d="m400.63 453-75.827-75.827c-20.266-20.266-20.266-53.123 0-73.388 20.266-20.266 53.123-20.266 73.388 0l75.827 75.827c20.266 20.266 20.266 53.123 0 73.388-20.265 20.265-53.122 20.265-73.388 0z" fill="url(#SVGID_00000179612212456981041180000003465177252043488671_)"></path><g><path d="m409.754 435.755-67.705-67.705c-14.486-14.486-14.486-37.973 0-52.459 14.486-14.486 37.973-14.486 52.459 0l67.705 67.705c14.486 14.486 14.486 37.973 0 52.459-14.487 14.486-37.973 14.486-52.459 0z" fill="url(#SVGID_00000173139399848013844370000013253804634563748241_)"></path><path d="m462.212 383.296-67.705-67.705c-14.486-14.486-37.973-14.486-52.459 0-1.634 1.634-3.073 3.387-4.339 5.224 14.45-9.953 34.382-8.514 47.234 4.339l67.705 67.705c12.852 12.852 14.292 32.784 4.339 47.234 1.837-1.265 3.59-2.705 5.224-4.339 14.487-14.485 14.487-37.972.001-52.458z" fill="url(#SVGID_00000038371278222476474400000004461034388507041455_)"></path></g><path d="m474.019 453c20.266-20.266 20.266-53.123 0-73.388l-60.408-60.408-171.764 171.762c75.376 37.501 169.356 24.849 232.172-37.966-.001 0 0 0 0 0z" fill="url(#SVGID_00000004529127122732463790000006124241369699840179_)"></path></g><g><path d="m366.672 237.556c-4.917-22.592-16.192-43.209-32.606-59.623s-37.03-27.689-59.622-32.607c-8.613-1.874-17.115 3.588-18.99 12.2-1.874 8.612 3.588 17.113 12.199 18.99 16.602 3.614 31.763 11.909 43.842 23.988s20.373 27.239 23.988 43.842c.675 3.101 2.209 5.792 4.297 7.881 3.713 3.713 9.18 5.519 14.692 4.318 8.613-1.874 14.075-10.376 12.2-18.989z" fill="url(#SVGID_00000004504737521391924310000016104917516298502529_)"></path><path d="m435.798 223.447c-7.684-36.162-25.616-69.147-51.858-95.388-26.242-26.242-59.226-44.174-95.388-51.858-11.085-2.356-21.981 4.721-24.337 15.807-2.355 11.085 4.723 21.981 15.807 24.336 28.382 6.031 54.281 20.117 74.899 40.734 20.617 20.617 34.703 46.518 40.734 74.898.855 4.027 2.838 7.524 5.546 10.233 4.749 4.749 11.732 7.074 18.79 5.574 11.086-2.355 18.163-13.251 15.807-24.336z" fill="url(#SVGID_00000053535328996443574300000013205784425479630767_)"></path><path d="m511.459 207.977c-10.709-51.003-35.926-97.517-72.923-134.514s-83.511-62.213-134.514-72.923c-13.555-2.847-26.852 5.835-29.698 19.39-2.847 13.555 5.835 26.852 19.39 29.698 41.447 8.703 79.261 29.21 109.353 59.302s50.599 67.906 59.302 109.353c1.038 4.945 3.467 9.241 6.792 12.566 5.789 5.789 14.296 8.633 22.906 6.825 13.557-2.844 22.239-16.141 19.392-29.697z" fill="url(#SVGID_00000178915301464769755340000013015755003606115997_)"></path></g></g><g></g><g></g><g></g><g></g><g></g><g></g><g></g><g></g><g></g><g></g><g></g><g></g><g></g><g></g><g></g></svg> 