<?xml version="1.0" encoding="UTF-8"?> <svg xmlns="http://www.w3.org/2000/svg" xmlns:xlink="http://www.w3.org/1999/xlink" id="Capa_1" viewBox="0 0 512 512"><linearGradient id="lg1"><stop offset="0" stop-color="#5a5a5a"></stop><stop offset="1" stop-color="#444"></stop></linearGradient><linearGradient id="SVGID_1_" gradientUnits="userSpaceOnUse" x1="118.442" x2="164.437" xlink:href="#lg1" y1="347.964" y2="393.959"></linearGradient><linearGradient id="lg2"><stop offset="0" stop-color="#433f43" stop-opacity="0"></stop><stop offset="1" stop-color="#1a1a1a"></stop></linearGradient><linearGradient id="SVGID_00000163045869837615063070000013595743182049117097_" gradientUnits="userSpaceOnUse" x1="137.992" x2="137.992" xlink:href="#lg2" y1="368.154" y2="427.673"></linearGradient><linearGradient id="SVGID_00000012468261230387589010000010072804379321495741_" gradientTransform="matrix(.707 -.707 .707 .707 -255.492 -950.635)" gradientUnits="userSpaceOnUse" x1="-653.837" x2="-653.837" xlink:href="#lg2" y1="1210.947" y2="1273.598"></linearGradient><linearGradient id="SVGID_00000075161712272752353090000003140860890716102020_" gradientUnits="userSpaceOnUse" x1="178.956" x2="123.352" xlink:href="#lg2" y1="376.027" y2="365.571"></linearGradient><linearGradient id="SVGID_00000132767148434028309400000012509778536986105012_" gradientUnits="userSpaceOnUse" x1="172.896" x2="111.807" xlink:href="#lg2" y1="377.168" y2="360.271"></linearGradient><linearGradient id="SVGID_00000002351618914415925750000014032283430011261331_" gradientUnits="userSpaceOnUse" x1="20.693" x2="245.248" y1="-6.536" y2="332.078"><stop offset="0" stop-color="#bbec6c"></stop><stop offset=".2886" stop-color="#abdc59"></stop><stop offset=".866" stop-color="#82b32a"></stop><stop offset="1" stop-color="#78a91f"></stop></linearGradient><linearGradient id="lg3"><stop offset="0" stop-color="#334c0f" stop-opacity="0"></stop><stop offset=".3197" stop-color="#344c12" stop-opacity=".32"></stop><stop offset=".5654" stop-color="#374a1c" stop-opacity=".565"></stop><stop offset=".7856" stop-color="#3c482c" stop-opacity=".786"></stop><stop offset=".9909" stop-color="#444443" stop-opacity=".991"></stop><stop offset="1" stop-color="#444"></stop></linearGradient><linearGradient id="SVGID_00000074405850154375451270000013187472630058249891_" gradientUnits="userSpaceOnUse" x1="170.641" x2="170.641" xlink:href="#lg3" y1="305.855" y2="367.94"></linearGradient><linearGradient id="SVGID_00000075148585731964180460000006790839563864897418_" gradientUnits="userSpaceOnUse" x1="-22.922" x2="487.494" xlink:href="#lg3" y1="24.364" y2="360.126"></linearGradient><linearGradient id="SVGID_00000166656486379178150680000007206180935143676591_" gradientUnits="userSpaceOnUse" x1="295.97" x2="345.575" xlink:href="#lg3" y1="219.575" y2="219.575"></linearGradient><linearGradient id="SVGID_00000060020495900764993330000001645244673476283558_" gradientUnits="userSpaceOnUse" x1="378.493" x2="424.488" xlink:href="#lg1" y1="347.964" y2="393.959"></linearGradient><linearGradient id="SVGID_00000124865879899276049350000010474299590606873000_" gradientUnits="userSpaceOnUse" x1="398.043" x2="398.043" xlink:href="#lg2" y1="368.154" y2="427.673"></linearGradient><linearGradient id="SVGID_00000163752346888923190480000017452063442142518186_" gradientTransform="matrix(.707 -.707 .707 .707 -255.492 -950.635)" gradientUnits="userSpaceOnUse" x1="-469.953" x2="-469.953" xlink:href="#lg2" y1="1394.83" y2="1457.481"></linearGradient><linearGradient id="SVGID_00000072996145091968386800000012555089613181384327_" gradientUnits="userSpaceOnUse" x1="439.007" x2="383.403" xlink:href="#lg2" y1="376.027" y2="365.571"></linearGradient><linearGradient id="SVGID_00000052087153498836871840000004066363039336839076_" gradientUnits="userSpaceOnUse" x1="432.947" x2="371.858" xlink:href="#lg2" y1="377.168" y2="360.271"></linearGradient><linearGradient id="lg4"><stop offset="0" stop-color="#fef0ae"></stop><stop offset="1" stop-color="#fac600"></stop></linearGradient><linearGradient id="SVGID_00000061453740938501193870000006742277318537770167_" gradientUnits="userSpaceOnUse" x1="483.738" x2="506.734" xlink:href="#lg4" y1="303.433" y2="318.562"></linearGradient><linearGradient id="lg5"><stop offset="0" stop-color="#fe9738" stop-opacity="0"></stop><stop offset="1" stop-color="#fe9738"></stop></linearGradient><linearGradient id="SVGID_00000082347292214093097160000010673276182079868331_" gradientUnits="userSpaceOnUse" x1="496.986" x2="503.441" xlink:href="#lg5" y1="311.111" y2="330.013"></linearGradient><linearGradient id="SVGID_00000081631146629940962650000008321160609349293218_" gradientUnits="userSpaceOnUse" x1="495.451" x2="510.895" xlink:href="#lg5" y1="310.879" y2="316.412"></linearGradient><linearGradient id="lg6"><stop offset="0" stop-color="#f5fbff"></stop><stop offset="1" stop-color="#dbd5ef"></stop></linearGradient><linearGradient id="SVGID_00000153690900921377716200000001357911122815750279_" gradientUnits="userSpaceOnUse" x1="408.174" x2="408.174" xlink:href="#lg6" y1="98.651" y2="358.503"></linearGradient><linearGradient id="lg7"><stop offset="0" stop-color="#dbd5ef" stop-opacity="0"></stop><stop offset=".2853" stop-color="#d9d2ee" stop-opacity=".285"></stop><stop offset=".4739" stop-color="#d4c9e9" stop-opacity=".474"></stop><stop offset=".6346" stop-color="#cbbae2" stop-opacity=".635"></stop><stop offset=".7795" stop-color="#bfa5d7" stop-opacity=".78"></stop><stop offset=".9126" stop-color="#af8aca" stop-opacity=".913"></stop><stop offset="1" stop-color="#a274bf"></stop></linearGradient><linearGradient id="SVGID_00000054251156613760558820000000359807900420967315_" gradientUnits="userSpaceOnUse" x1="592.133" x2="397.117" xlink:href="#lg7" y1="108.148" y2="258.905"></linearGradient><linearGradient id="SVGID_00000115477842746170762850000007388639874028185768_" gradientUnits="userSpaceOnUse" x1="270.398" x2="396.952" xlink:href="#lg6" y1="249.765" y2="249.765"></linearGradient><linearGradient id="SVGID_00000024000410496945915050000000492231928076589503_" gradientUnits="userSpaceOnUse" x1="372.478" x2="471.368" xlink:href="#lg7" y1="253.308" y2="263.681"></linearGradient><linearGradient id="SVGID_00000054956645014495227190000015319310770222511495_" gradientUnits="userSpaceOnUse" x1="386.391" x2="386.391" xlink:href="#lg7" y1="308.88" y2="360.75"></linearGradient><linearGradient id="SVGID_00000117662955283803783320000004902993405027200167_" gradientUnits="userSpaceOnUse" x1="426.687" x2="506.034" xlink:href="#lg7" y1="249.765" y2="249.765"></linearGradient><linearGradient id="SVGID_00000101084511273468916280000013337496809035178672_" gradientUnits="userSpaceOnUse" x1="488.738" x2="488.738" xlink:href="#lg6" y1="297.469" y2="287.973"></linearGradient><linearGradient id="SVGID_00000151532730377462115170000009771740114196894883_" gradientUnits="userSpaceOnUse" x1="488.738" x2="488.738" xlink:href="#lg6" y1="315.795" y2="306.299"></linearGradient><linearGradient id="SVGID_00000119102556089072765580000009134821038564252033_" gradientUnits="userSpaceOnUse" x1="488.738" x2="488.738" xlink:href="#lg6" y1="334.12" y2="324.624"></linearGradient><linearGradient id="SVGID_00000131366743964186896230000012664603087983340202_" gradientUnits="userSpaceOnUse" x1="318.461" x2="318.461" xlink:href="#lg6" y1="298.507" y2="280.168"></linearGradient><linearGradient id="lg8"><stop offset="0" stop-color="#b3dafe"></stop><stop offset="1" stop-color="#0182fc"></stop></linearGradient><linearGradient id="SVGID_00000122699236977241586350000011645857730555167914_" gradientUnits="userSpaceOnUse" x1="299.255" x2="424.141" xlink:href="#lg8" y1="173.067" y2="297.953"></linearGradient><linearGradient id="lg9"><stop offset="0" stop-color="#314dc9" stop-opacity="0"></stop><stop offset=".2761" stop-color="#304bc4" stop-opacity=".276"></stop><stop offset=".5628" stop-color="#2b45b8" stop-opacity=".563"></stop><stop offset=".8535" stop-color="#243ba3" stop-opacity=".854"></stop><stop offset="1" stop-color="#1f3596"></stop></linearGradient><linearGradient id="SVGID_00000092416407937938894230000017092547502794876080_" gradientUnits="userSpaceOnUse" x1="323.637" x2="286.419" xlink:href="#lg9" y1="213.886" y2="213.886"></linearGradient><linearGradient id="SVGID_00000049196059334096656040000012343139258704943021_" gradientUnits="userSpaceOnUse" x1="361.421" x2="361.421" xlink:href="#lg9" y1="189.604" y2="155.276"></linearGradient><linearGradient id="SVGID_00000134244583459779511480000001140990782802678958_" gradientUnits="userSpaceOnUse" x1="391.309" x2="517.631" xlink:href="#lg8" y1="172.839" y2="251.675"></linearGradient><linearGradient id="SVGID_00000132770817679989182830000013854431117466748581_" gradientUnits="userSpaceOnUse" x1="462.939" x2="442.192" xlink:href="#lg9" y1="212.453" y2="223.749"></linearGradient><linearGradient id="SVGID_00000031205913076437719960000009722041417397928083_" gradientUnits="userSpaceOnUse" x1="444.38" x2="444.38" xlink:href="#lg9" y1="173.337" y2="158.813"></linearGradient><linearGradient id="SVGID_00000162325207058560479520000013658858521982666919_" gradientUnits="userSpaceOnUse" x1="454.67" x2="477.666" xlink:href="#lg4" y1="303.433" y2="318.562"></linearGradient><linearGradient id="SVGID_00000062176390218484580970000009471249524637721764_" gradientUnits="userSpaceOnUse" x1="467.919" x2="474.373" xlink:href="#lg5" y1="311.111" y2="330.013"></linearGradient><linearGradient id="SVGID_00000150074352175961809340000003504147762703114650_" gradientUnits="userSpaceOnUse" x1="466.383" x2="481.827" xlink:href="#lg5" y1="310.879" y2="316.412"></linearGradient><linearGradient id="SVGID_00000167354129461632561670000011948361061319850413_" gradientUnits="userSpaceOnUse" x1="453.432" x2="419.57" xlink:href="#lg7" y1="289.973" y2="272.151"></linearGradient><linearGradient id="SVGID_00000155121487043436323660000002519604391464552579_" gradientUnits="userSpaceOnUse" x1="308.896" x2="359.349" xlink:href="#lg1" y1="356.65" y2="407.103"></linearGradient><linearGradient id="SVGID_00000079453877703392041090000009057499496630397830_" gradientUnits="userSpaceOnUse" x1="330.34" x2="330.34" xlink:href="#lg2" y1="378.797" y2="444.085"></linearGradient><linearGradient id="SVGID_00000047028629403286236910000007565534501143806115_" gradientTransform="matrix(.707 -.707 .707 .707 -255.492 -950.635)" gradientUnits="userSpaceOnUse" x1="-525.308" x2="-525.308" xlink:href="#lg2" y1="1354.502" y2="1423.225"></linearGradient><linearGradient id="SVGID_00000078760072597368771420000016525141810838412477_" gradientUnits="userSpaceOnUse" x1="343.674" x2="301.975" xlink:href="#lg2" y1="391.429" y2="349.73"></linearGradient><linearGradient id="SVGID_00000061468404024782348040000010285073510373836674_" gradientUnits="userSpaceOnUse" x1="320.145" x2="344.131" xlink:href="#lg6" y1="367.9" y2="391.886"></linearGradient><linearGradient id="SVGID_00000130622311450761709950000000101349163300596148_" gradientUnits="userSpaceOnUse" x1="330.34" x2="330.34" xlink:href="#lg7" y1="378.429" y2="409.467"></linearGradient><linearGradient id="SVGID_00000127003114996437659090000017677184253578942100_" gradientTransform="matrix(.707 -.707 .707 .707 -255.492 -950.635)" gradientUnits="userSpaceOnUse" x1="-525.308" x2="-525.308" xlink:href="#lg7" y1="1354.133" y2="1386.805"></linearGradient><linearGradient id="SVGID_00000004521584813034727640000008830545218526803091_" gradientUnits="userSpaceOnUse" x1="48.845" x2="99.298" xlink:href="#lg1" y1="356.65" y2="407.103"></linearGradient><linearGradient id="SVGID_00000132770176322847240920000011648827039120465281_" gradientUnits="userSpaceOnUse" x1="70.289" x2="70.289" xlink:href="#lg2" y1="378.797" y2="444.085"></linearGradient><linearGradient id="SVGID_00000131352391685896510540000012472558238354729126_" gradientTransform="matrix(.707 -.707 .707 .707 -255.492 -950.635)" gradientUnits="userSpaceOnUse" x1="-709.192" x2="-709.192" xlink:href="#lg2" y1="1170.618" y2="1239.341"></linearGradient><linearGradient id="SVGID_00000170251741491125056140000009436705099547017859_" gradientUnits="userSpaceOnUse" x1="83.623" x2="41.924" xlink:href="#lg2" y1="391.429" y2="349.73"></linearGradient><linearGradient id="SVGID_00000039126243140091198730000014474431166039777410_" gradientUnits="userSpaceOnUse" x1="60.094" x2="84.08" xlink:href="#lg6" y1="367.9" y2="391.886"></linearGradient><linearGradient id="SVGID_00000070798078775301952440000004025968917112562354_" gradientUnits="userSpaceOnUse" x1="70.289" x2="70.289" xlink:href="#lg7" y1="378.429" y2="409.467"></linearGradient><linearGradient id="SVGID_00000129195506799670591570000016034113143781527201_" gradientTransform="matrix(.707 -.707 .707 .707 -255.492 -950.635)" gradientUnits="userSpaceOnUse" x1="-709.192" x2="-709.192" xlink:href="#lg7" y1="1170.25" y2="1202.921"></linearGradient><linearGradient id="SVGID_00000061470917177971290800000016705385055937071783_" gradientUnits="userSpaceOnUse" x1="414.766" x2="424.271" xlink:href="#lg1" y1="248.746" y2="255.4"></linearGradient><linearGradient id="SVGID_00000092432471421890484120000017308809910079295621_" gradientUnits="userSpaceOnUse" x1="424.113" x2="424.113" xlink:href="#lg2" y1="259.28" y2="272.564"></linearGradient><linearGradient id="SVGID_00000011747019224996067710000011011251937597962165_" gradientUnits="userSpaceOnUse" x1="423.218" x2="434.869" xlink:href="#lg2" y1="254.56" y2="254.56"></linearGradient><g><g><g><circle cx="137.992" cy="367.513" fill="url(#SVGID_1_)" r="50.596"></circle><path d="m87.396 367.513c0 27.943 22.653 50.596 50.596 50.596s50.596-22.653 50.596-50.596c0-6.052-1.066-11.854-3.015-17.233h-95.163c-1.948 5.379-3.014 11.181-3.014 17.233z" fill="url(#SVGID_00000163045869837615063070000013595743182049117097_)"></path><path d="m102.215 403.29c19.759 19.759 51.795 19.759 71.554 0s19.759-51.795 0-71.554c-4.279-4.279-9.136-7.628-14.317-10.054l-67.29 67.29c2.425 5.182 5.774 10.039 10.053 14.318z" fill="url(#SVGID_00000012468261230387589010000010072804379321495741_)"></path><path d="m102.215 403.29c19.759 19.759 51.795 19.759 71.554 0s19.759-51.795 0-71.554c-4.279-4.279-9.136-7.628-14.317-10.054l-67.29 67.29c2.425 5.182 5.774 10.039 10.053 14.318z" fill="url(#SVGID_00000075161712272752353090000003140860890716102020_)"></path></g><circle cx="137.992" cy="367.513" fill="url(#SVGID_00000132767148434028309400000012509778536986105012_)" r="32.61"></circle></g><g><path d="m317.672 78.409h-294.063c-13.039 0-23.609 10.57-23.609 23.609v235.116c0 13.039 10.57 23.609 23.609 23.609h294.063c13.039 0 23.609-10.57 23.609-23.609v-235.116c0-13.039-10.57-23.609-23.609-23.609z" fill="url(#SVGID_00000002351618914415925750000014032283430011261331_)"></path><path d="m0 186.824v150.31c0 13.039 10.57 23.609 23.609 23.609h199.309 94.754c13.039 0 23.609-10.57 23.609-23.609v-150.31z" fill="url(#SVGID_00000074405850154375451270000013187472630058249891_)"></path><path d="m341.28 102.015v235.12c0 13.04-10.57 23.61-23.61 23.61h-94.75c13.04 0 23.61-10.57 23.61-23.61v-235.12c0-13.04-10.57-23.61-23.61-23.61h94.75c13.04 0 23.61 10.57 23.61 23.61z" fill="url(#SVGID_00000075148585731964180460000006790839563864897418_)"></path><path d="m341.28 102.015v235.12c0 13.04-10.57 23.61-23.61 23.61h-94.75c13.04 0 23.61-10.57 23.61-23.61v-235.12c0-13.04-10.57-23.61-23.61-23.61h94.75c13.04 0 23.61 10.57 23.61 23.61z" fill="url(#SVGID_00000166656486379178150680000007206180935143676591_)"></path></g><g><g><circle cx="398.043" cy="367.513" fill="url(#SVGID_00000060020495900764993330000001645244673476283558_)" r="50.596"></circle><path d="m347.447 367.513c0 27.943 22.653 50.596 50.596 50.596s50.596-22.653 50.596-50.596c0-6.052-1.066-11.854-3.015-17.233h-95.163c-1.948 5.379-3.014 11.181-3.014 17.233z" fill="url(#SVGID_00000124865879899276049350000010474299590606873000_)"></path><path d="m362.266 403.29c19.759 19.759 51.795 19.759 71.554 0s19.759-51.795 0-71.554c-4.279-4.279-9.136-7.628-14.317-10.054l-67.29 67.29c2.425 5.182 5.774 10.039 10.053 14.318z" fill="url(#SVGID_00000163752346888923190480000017452063442142518186_)"></path><path d="m362.266 403.29c19.759 19.759 51.795 19.759 71.554 0s19.759-51.795 0-71.554c-4.279-4.279-9.136-7.628-14.317-10.054l-67.29 67.29c2.425 5.182 5.774 10.039 10.053 14.318z" fill="url(#SVGID_00000072996145091968386800000012555089613181384327_)"></path></g><circle cx="398.043" cy="367.513" fill="url(#SVGID_00000052087153498836871840000004066363039336839076_)" r="32.61"></circle></g><g><g><path d="m512 309.978c0 12.3-9.202 22.271-20.554 22.271s-11.352-44.542 0-44.542 20.554 9.971 20.554 22.271z" fill="url(#SVGID_00000061453740938501193870000006742277318537770167_)"></path><path d="m491.446 332.249c11.352 0 20.554-9.971 20.554-22.271 0-3.494-.744-6.799-2.068-9.742h-26.227c-2.221 13.174.358 32.013 7.741 32.013z" fill="url(#SVGID_00000082347292214093097160000010673276182079868331_)"></path><path d="m491.446 287.707c-.143 0-.283.012-.423.026v44.49c.14.014.28.026.423.026 11.352 0 20.554-9.971 20.554-22.271s-9.202-22.271-20.554-22.271z" fill="url(#SVGID_00000081631146629940962650000008321160609349293218_)"></path></g><g><path d="m336.291 138.788h54.87c22.546 0 43.485 11.674 55.337 30.854l26.391 42.705c4.682 7.576 7.757 15.994 9.077 24.734 1.006 6.66 4.372 12.734 9.625 16.95 6.247 5.014 9.882 12.592 9.882 20.602v67.021c0 10.542-8.546 19.088-19.088 19.088h-21.095-25.344-121.068v-200.54c-.001-11.826 9.586-21.414 21.413-21.414z" fill="url(#SVGID_00000153690900921377716200000001357911122815750279_)"></path><path d="m336.291 138.788h54.87c22.546 0 43.485 11.674 55.337 30.854l26.391 42.705c4.682 7.576 7.757 15.994 9.077 24.734 1.006 6.66 4.372 12.734 9.625 16.95 6.247 5.014 9.882 12.592 9.882 20.602v67.021c0 10.542-8.546 19.088-19.088 19.088h-21.095-25.344-121.068v-200.54c-.001-11.826 9.586-21.414 21.413-21.414z" fill="url(#SVGID_00000054251156613760558820000000359807900420967315_)"></path><path d="m292.723 138.788h54.87c22.546 0 43.485 11.674 55.337 30.854l26.391 42.705c4.682 7.576 7.757 15.994 9.077 24.734 1.006 6.66 4.372 12.734 9.625 16.95 6.247 5.014 9.882 12.592 9.882 20.602v67.021c0 10.542-8.546 19.088-19.088 19.088h-21.095-25.344-104.929c-8.914 0-16.14-7.226-16.14-16.14v-184.4c0-11.826 9.588-21.414 21.414-21.414z" fill="url(#SVGID_00000115477842746170762850000007388639874028185768_)"></path><path d="m448.023 254.031c-5.253-4.216-8.619-10.291-9.625-16.95-1.32-8.739-4.395-17.158-9.077-24.734l-26.391-42.705c-11.852-19.179-32.791-30.854-55.337-30.854h-21.18v221.954h65.965 25.344 21.095c10.542 0 19.088-8.546 19.088-19.088v-67.021c0-8.01-3.635-15.588-9.882-20.602z" fill="url(#SVGID_00000024000410496945915050000000492231928076589503_)"></path><path d="m482.384 360.742c10.542 0 19.088-8.546 19.088-19.088v-67.021c0-1.71-.175-3.397-.496-5.047h-229.667v75.016c0 8.914 7.226 16.14 16.14 16.14z" fill="url(#SVGID_00000054956645014495227190000015319310770222511495_)"></path><path d="m336.291 138.788h54.87c22.546 0 43.485 11.674 55.337 30.854l26.391 42.705c4.682 7.576 7.757 15.994 9.077 24.734 1.006 6.66 4.372 12.734 9.625 16.95 6.247 5.014 9.882 12.592 9.882 20.602v67.021c0 10.542-8.546 19.088-19.088 19.088h-21.095-25.344-121.068v-200.54c-.001-11.826 9.586-21.414 21.413-21.414z" fill="url(#SVGID_00000117662955283803783320000004902993405027200167_)"></path><g><g><path d="m501.472 297.361h-20.477c-3.153 0-5.709-2.556-5.709-5.709s2.556-5.709 5.709-5.709h20.477c.956 3.746.956 7.672 0 11.418z" fill="url(#SVGID_00000101084511273468916280000013337496809035178672_)"></path></g><g><path d="m501.472 315.687h-20.477c-3.153 0-5.709-2.556-5.709-5.709s2.556-5.709 5.709-5.709h20.477c.956 3.746.956 7.672 0 11.418z" fill="url(#SVGID_00000151532730377462115170000009771740114196894883_)"></path></g><g><path d="m501.472 334.013h-20.477c-3.153 0-5.709-2.556-5.709-5.709s2.556-5.709 5.709-5.709h20.477c.956 3.746.956 7.672 0 11.418z" fill="url(#SVGID_00000119102556089072765580000009134821038564252033_)"></path></g></g><path d="m330.735 300.236h-24.548c-5.824 0-10.546-4.722-10.546-10.546s4.722-10.546 10.546-10.546h24.548c5.824 0 10.546 4.722 10.546 10.546s-4.721 10.546-10.546 10.546z" fill="url(#SVGID_00000131366743964186896230000012664603087983340202_)"></path><g><path d="m321.276 266.106c-14.158 0-25.635-11.477-25.635-25.635v-53.171c0-14.158 11.477-25.635 25.635-25.635h30.798c14.572 0 28.104 7.545 35.765 19.941l29.098 47.086c4.608 7.456 7.96 15.57 9.966 24.019 1.623 6.834-3.561 13.396-10.585 13.396h-95.042z" fill="url(#SVGID_00000122699236977241586350000011645857730555167914_)"></path><path d="m321.276 266.106c-14.158 0-25.635-11.477-25.635-25.635v-53.171c0-14.158 11.477-25.635 25.635-25.635h30.798c14.572 0 28.104 7.545 35.765 19.941l29.098 47.086c4.608 7.456 7.96 15.57 9.966 24.019 1.623 6.834-3.561 13.396-10.585 13.396h-95.042z" fill="url(#SVGID_00000092416407937938894230000017092547502794876080_)"></path><path d="m321.276 266.106c-14.158 0-25.635-11.477-25.635-25.635v-53.171c0-14.158 11.477-25.635 25.635-25.635h30.798c14.572 0 28.104 7.545 35.765 19.941l29.098 47.086c4.608 7.456 7.96 15.57 9.966 24.019 1.623 6.834-3.561 13.396-10.585 13.396h-95.042z" fill="url(#SVGID_00000049196059334096656040000012343139258704943021_)"></path></g><path d="m419.528 169.639 26.386 42.703c4.685 7.576 7.761 15.997 9.08 24.737 1.009 6.664 4.375 12.737 9.623 16.947 3.124 2.503 5.597 5.656 7.285 9.177l.062.128c.82 1.695 2.537 2.772 4.42 2.772h21.238c1.188 0 2.057-1.127 1.75-2.275-1.019-3.818-1.52-7.226-4.995-9.893-5.266-4.041-8.505-10.17-9.484-16.735-1.31-8.783-4.392-17.243-9.095-24.854l-26.391-42.705c-.291-.471-.728-1.007-1.253-1.573-3.848-4.143-9.312-6.404-14.966-6.404h-9.321c-4.05 0-6.526 4.447-4.393 7.889z" fill="url(#SVGID_00000134244583459779511480000001140990782802678958_)"></path><path d="m419.528 169.639 26.386 42.703c4.685 7.576 7.761 15.997 9.08 24.737 1.009 6.664 4.375 12.737 9.623 16.947 3.124 2.503 5.597 5.656 7.285 9.177l.062.128c.82 1.695 2.537 2.772 4.42 2.772h21.238c1.188 0 2.057-1.127 1.75-2.275-1.019-3.818-1.52-7.226-4.995-9.893-5.266-4.041-8.505-10.17-9.484-16.735-1.31-8.783-4.392-17.243-9.095-24.854l-26.391-42.705c-.291-.471-.728-1.007-1.253-1.573-3.848-4.143-9.312-6.404-14.966-6.404h-9.321c-4.05 0-6.526 4.447-4.393 7.889z" fill="url(#SVGID_00000132770817679989182830000013854431117466748581_)"></path><path d="m449.408 169.642c-.291-.471-.728-1.007-1.253-1.573-3.848-4.143-9.311-6.404-14.965-6.404h-9.321c-4.05 0-6.526 4.447-4.393 7.889l.052.085 20.659 33.435h29.881z" fill="url(#SVGID_00000031205913076437719960000009722041417397928083_)"></path></g><g><path d="m482.932 309.978c0 12.3-9.202 22.271-20.554 22.271s-11.352-44.542 0-44.542 20.554 9.971 20.554 22.271z" fill="url(#SVGID_00000162325207058560479520000013658858521982666919_)"></path><path d="m462.379 332.249c11.352 0 20.554-9.971 20.554-22.271 0-3.494-.744-6.799-2.068-9.742h-26.227c-2.222 13.174.358 32.013 7.741 32.013z" fill="url(#SVGID_00000062176390218484580970000009471249524637721764_)"></path><path d="m462.379 287.707c-.143 0-.283.012-.423.026v44.49c.14.014.28.026.423.026 11.352 0 20.554-9.971 20.554-22.271-.001-12.3-9.203-22.271-20.554-22.271z" fill="url(#SVGID_00000150074352175961809340000003504147762703114650_)"></path></g></g><path d="m432.61 236.761-17.509 36.858 81.139 81.139c3.235-3.42 5.232-8.024 5.232-13.103v-36.031z" fill="url(#SVGID_00000167354129461632561670000011948361061319850413_)"></path><g><g><circle cx="330.34" cy="378.095" fill="url(#SVGID_00000155121487043436323660000002519604391464552579_)" r="55.5"></circle><path d="m274.84 378.095c0 30.652 24.848 55.5 55.5 55.5s55.5-24.848 55.5-55.5c0-6.638-1.169-13.003-3.307-18.903h-104.386c-2.137 5.9-3.307 12.264-3.307 18.903z" fill="url(#SVGID_00000079453877703392041090000009057499496630397830_)"></path><path d="m291.096 417.339c21.674 21.674 56.815 21.674 78.489 0s21.674-56.815 0-78.489c-4.694-4.694-10.021-8.367-15.705-11.028l-73.812 73.812c2.661 5.684 6.334 11.011 11.028 15.705z" fill="url(#SVGID_00000047028629403286236910000007565534501143806115_)"></path></g><circle cx="330.34" cy="378.095" fill="url(#SVGID_00000078760072597368771420000016525141810838412477_)" r="35.771"></circle><g><circle cx="330.34" cy="378.095" fill="url(#SVGID_00000061468404024782348040000010285073510373836674_)" r="26.385"></circle><path d="m303.955 378.095c0 14.572 11.813 26.385 26.385 26.385s26.385-11.813 26.385-26.385c0-3.156-.556-6.182-1.572-8.987h-49.626c-1.016 2.805-1.572 5.831-1.572 8.987z" fill="url(#SVGID_00000130622311450761709950000000101349163300596148_)"></path><path d="m311.683 396.752c10.304 10.304 27.01 10.304 37.314 0s10.304-27.01 0-37.314c-2.232-2.232-4.764-3.978-7.466-5.243l-35.091 35.091c1.265 2.702 3.011 5.234 5.243 7.466z" fill="url(#SVGID_00000127003114996437659090000017677184253578942100_)"></path></g></g><g><g><circle cx="70.289" cy="378.095" fill="url(#SVGID_00000004521584813034727640000008830545218526803091_)" r="55.5"></circle><path d="m14.789 378.095c0 30.652 24.848 55.5 55.5 55.5s55.5-24.848 55.5-55.5c0-6.638-1.169-13.003-3.307-18.903h-104.386c-2.137 5.9-3.307 12.264-3.307 18.903z" fill="url(#SVGID_00000132770176322847240920000011648827039120465281_)"></path><path d="m31.045 417.339c21.674 21.674 56.815 21.674 78.489 0s21.674-56.815 0-78.489c-4.694-4.694-10.021-8.367-15.705-11.028l-73.812 73.812c2.66 5.684 6.334 11.011 11.028 15.705z" fill="url(#SVGID_00000131352391685896510540000012472558238354729126_)"></path></g><circle cx="70.289" cy="378.095" fill="url(#SVGID_00000170251741491125056140000009436705099547017859_)" r="35.771"></circle><g><circle cx="70.289" cy="378.095" fill="url(#SVGID_00000039126243140091198730000014474431166039777410_)" r="26.385"></circle><path d="m43.904 378.095c0 14.572 11.813 26.385 26.385 26.385s26.385-11.813 26.385-26.385c0-3.156-.556-6.182-1.572-8.987h-49.626c-1.016 2.805-1.572 5.831-1.572 8.987z" fill="url(#SVGID_00000070798078775301952440000004025968917112562354_)"></path><path d="m51.632 396.752c10.304 10.304 27.01 10.304 37.314 0s10.304-27.01 0-37.314c-2.232-2.232-4.764-3.978-7.466-5.243l-35.091 35.091c1.265 2.702 3.011 5.234 5.243 7.466z" fill="url(#SVGID_00000129195506799670591570000016034113143781527201_)"></path></g></g><g><path d="m422.592 232.548c-6.067 0-10.986 4.918-10.986 10.986v22.052c0 6.067 4.918 10.986 10.986 10.986 7.746 0 14.026-6.28 14.026-14.026v-15.971c.001-7.747-6.279-14.027-14.026-14.027z" fill="url(#SVGID_00000061470917177971290800000016705385055937071783_)"></path><path d="m411.607 251.358v14.228c0 6.067 4.918 10.986 10.986 10.986 7.746 0 14.026-6.28 14.026-14.026v-11.187h-25.012z" fill="url(#SVGID_00000092432471421890484120000017308809910079295621_)"></path><path d="m422.593 232.549c-1.372 0-2.679.263-3.89.722v42.58c1.211.459 2.518.722 3.89.722 7.746 0 14.026-6.28 14.026-14.026v-15.971c0-7.748-6.28-14.027-14.026-14.027z" fill="url(#SVGID_00000011747019224996067710000011011251937597962165_)"></path></g></g><g></g><g></g><g></g><g></g><g></g><g></g><g></g><g></g><g></g><g></g><g></g><g></g><g></g><g></g><g></g></svg> 