<?xml version="1.0" encoding="UTF-8"?> <svg xmlns="http://www.w3.org/2000/svg" width="65" height="66" viewBox="0 0 65 66" fill="none"><g clip-path="url(#clip0_740_2601)"><path d="M59.38 6.26042C50.84 9.82332 14.22 25.0915 4.09997 29.2482C-2.69003 31.9153 1.28997 34.4114 1.28997 34.4114C1.28997 34.4114 7.07997 36.4142 12.05 37.9139C17.01 39.4135 19.66 37.7428 19.66 37.7428L42.99 21.9211C51.26 16.2547 49.28 20.9247 47.29 22.9175C42.99 27.2453 35.87 34.0792 29.91 39.5745C27.26 41.9096 28.59 43.9024 29.75 44.9088C34.05 48.5724 45.8 56.0706 46.46 56.5738C49.96 59.0698 56.83 62.6529 57.88 55.0742L62.02 28.9261C63.34 20.0994 64.67 11.9369 64.83 9.6019C65.34 3.93548 59.38 6.26042 59.38 6.26042Z" fill="url(#paint0_linear_740_2601)"></path></g><defs><linearGradient id="paint0_linear_740_2601" x1="14.9857" y1="54.4755" x2="70.557" y2="15.8148" gradientUnits="userSpaceOnUse"><stop stop-color="#006EAC"></stop><stop offset="1" stop-color="#4DB0E4"></stop></linearGradient><clipPath id="clip0_740_2601"><rect width="65" height="65.4205" fill="white"></rect></clipPath></defs></svg> 