<?xml version="1.0" encoding="UTF-8"?> <svg xmlns="http://www.w3.org/2000/svg" width="56" height="56" viewBox="0 0 56 56" fill="none"><path d="M56 12.4584V43.542C56 44.2141 55.776 44.8412 55.4027 45.3341C54.8576 46.0583 53.9914 46.5286 53.0134 46.5286H2.98671C2.00864 46.5286 1.1425 46.0583 0.597318 45.3341C0.223979 44.8413 0 44.2142 0 43.542V12.4584C0 11.8685 0.171722 11.316 0.477855 10.8456C1.00797 10.0167 1.93378 9.47168 2.98659 9.47168H53.0133C54.066 9.47168 54.9919 10.0167 55.522 10.8456C55.8283 11.316 56 11.8685 56 12.4584Z" fill="#EBEFF2"></path><path d="M55.4025 45.3336C54.8575 46.0578 53.9912 46.5281 53.0133 46.5281H2.98656C2.00849 46.5281 1.14235 46.0578 0.597168 45.3336L27.9999 27.0029L55.4025 45.3336Z" fill="#D4D5DB"></path><path d="M55.5222 10.8456L29.5042 34.4214C28.6506 35.1949 27.3496 35.1949 26.496 34.4214L0.478027 10.8456C1.00814 10.0167 1.93395 9.47168 2.98676 9.47168H53.0135C54.0663 9.4718 54.9922 10.0169 55.5222 10.8456Z" fill="#647989"></path><path d="M55.5222 10.8456L29.4254 32.3688C28.5978 33.0513 27.4026 33.0513 26.5749 32.3688L0.478027 10.8456C1.00814 10.0167 1.93395 9.47168 2.98676 9.47168H53.0135C54.0663 9.4718 54.9922 10.0169 55.5222 10.8456Z" fill="#E0E5E8"></path></svg> 