<?xml version="1.0" encoding="UTF-8"?> <svg xmlns="http://www.w3.org/2000/svg" width="19" height="19" viewBox="0 0 19 19" fill="none"><path fill-rule="evenodd" clip-rule="evenodd" d="M9.36874 18.2119C7.56857 18.2119 6.732 17.9491 5.27785 16.8979C4.35806 18.0805 1.44539 19.0047 1.31837 17.4235C1.31837 16.2365 1.05557 15.2335 0.757733 14.1385C0.402956 12.7895 0 11.2872 0 9.11032C0 3.91131 4.26608 0 9.32056 0C14.3794 0 18.3433 4.10402 18.3433 9.1585C18.3603 14.1348 14.345 18.1853 9.36874 18.2119ZM9.4432 4.49384C6.98166 4.36682 5.06324 6.07063 4.63838 8.74241C4.28798 10.9543 4.90994 13.648 5.43991 13.7881C5.69395 13.8494 6.33342 13.3326 6.732 12.934C7.39107 13.3893 8.15854 13.6628 8.95702 13.7268C11.5076 13.8495 13.6869 11.9077 13.8582 9.35998C13.9579 6.80683 11.9941 4.64433 9.4432 4.49822L9.4432 4.49384Z" fill="#23C229"></path></svg> 