<?xml version="1.0" encoding="UTF-8"?> <svg xmlns="http://www.w3.org/2000/svg" xmlns:xlink="http://www.w3.org/1999/xlink" version="1.1" id="Слой_1" x="0px" y="0px" viewBox="0 0 512 512" style="enable-background:new 0 0 512 512;" xml:space="preserve"> <style type="text/css"> .st0{fill:url(#SVGID_1_);} .st1{fill:url(#SVGID_00000147196451799157686500000006564633084818007945_);} .st2{fill:#FFFFFF;} .st3{fill:#CB9080;} .st4{fill:#A5A5A4;} </style> <linearGradient id="SVGID_1_" gradientUnits="userSpaceOnUse" x1="487.2" y1="122.9044" x2="51.4429" y2="566.2124"> <stop offset="3.733966e-03" style="stop-color:#BBEC6C"></stop> <stop offset="0.8286" style="stop-color:#81B823"></stop> </linearGradient> <path class="st0" d="M35.43,244.04L451,204.43c19.09-1.82,36.03,12.18,37.85,31.26l18.94,198.69c1.82,19.08-12.18,36.03-31.26,37.85 L60.95,511.84c-19.09,1.82-36.03-12.18-37.85-31.26L4.17,281.89C2.35,262.8,16.34,245.86,35.43,244.04z"></path> <linearGradient id="SVGID_00000067233365655250597300000012058480358099625865_" gradientUnits="userSpaceOnUse" x1="460.0601" y1="150.5146" x2="24.303" y2="593.8226"> <stop offset="0.0631" style="stop-color:#026841;stop-opacity:0"></stop> <stop offset="0.2391" style="stop-color:#0A6644;stop-opacity:0.239"></stop> <stop offset="0.805" style="stop-color:#20604D;stop-opacity:0.611"></stop> <stop offset="1" style="stop-color:#3E5959"></stop> </linearGradient> <path style="fill:url(#SVGID_00000067233365655250597300000012058480358099625865_);" d="M35.43,244.04L451,204.43 c19.09-1.82,36.03,12.18,37.85,31.26l18.94,198.69c1.82,19.08-12.18,36.03-31.26,37.85L60.95,511.84 c-19.09,1.82-36.03-12.18-37.85-31.26L4.17,281.89C2.35,262.8,16.34,245.86,35.43,244.04z"></path> <g> <path class="st2" d="M99.06,438.24c-13.93-0.2-27.2-5.96-36.84-16.01c-23.37-24.56-26.93-61.92-8.62-90.45 c8.41-13.08,22.28-21.66,37.73-23.34c15.5-1.26,30.75,4.55,41.48,15.8c23.37,24.55,26.93,61.91,8.62,90.44 c-8.41,13.09-22.28,21.67-37.75,23.34C102.15,438.18,100.6,438.24,99.06,438.24z M95.9,325.59c-0.97,0-1.94,0.05-2.91,0.14 c-10.3,1.23-19.5,7.05-25.03,15.83c-13.62,21.62-10.95,49.71,6.52,68.37c7.09,7.59,17.23,11.56,27.6,10.82 c10.3-1.23,19.51-7.05,25.04-15.83c6.81-10.44,9.78-22.92,8.39-35.3c-0.98-12.43-6.25-24.12-14.91-33.08 C114.16,329.74,105.27,325.8,95.9,325.59z"></path> <path class="st2" d="M186.75,430.07c-4.47,0.02-8.23-3.36-8.68-7.81l-10.66-112.35c-0.4-3.14,0.94-6.25,3.5-8.12 c2.56-1.86,5.93-2.18,8.8-0.84c2.87,1.35,4.77,4.15,4.97,7.31l10.71,112.3c0.22,2.29-0.48,4.58-1.94,6.35 c-1.46,1.78-3.57,2.9-5.87,3.12C187.3,430.07,187.02,430.07,186.75,430.07z"></path> <path class="st2" d="M184.5,369.68c-1.84,0-3.15,0-3.78-0.06c-4.79-0.18-8.53-4.2-8.36-8.98c0.06-2.31,1.05-4.5,2.74-6.07 c1.69-1.57,3.95-2.4,6.25-2.29c10.41,0.4,39.92-1.13,50.44-12.32c2.52-2.82,3.75-6.57,3.39-10.33s-2.29-7.21-5.3-9.5 c-12.44-8.97-42.33-4.75-51.83-2.6c-4.67,1.07-9.33-1.84-10.41-6.51c-1.08-4.67,1.84-9.33,6.51-10.4 c4.52-1.04,44.86-9.77,65.88,5.4c7.07,5.22,11.57,13.2,12.4,21.95c0.83,8.74-2.11,17.43-8.06,23.88 C229.01,368.15,196.13,369.68,184.5,369.68z"></path> <path class="st2" d="M289.28,420.3c-4.47,0-8.2-3.4-8.63-7.85l-10.71-112.31c-0.45-4.77,3.04-9,7.81-9.46l74.57-7.11 c4.75-0.42,8.95,3.07,9.4,7.82c0.45,4.75-3.01,8.97-7.76,9.45l-65.95,6.28l9.05,95.03l65.95-6.28c3.1-0.32,6.13,1.05,7.94,3.59 c1.81,2.54,2.12,5.84,0.82,8.68c-1.3,2.83-4.02,4.74-7.12,5.02l-74.56,7.11C289.83,420.29,289.55,420.3,289.28,420.3z"></path> <path class="st2" d="M283.52,359.84c-4.79,0.22-8.86-3.48-9.09-8.27c-0.22-4.79,3.48-8.86,8.27-9.09l55.93-5.33 c4.75-0.42,8.95,3.07,9.4,7.82c0.45,4.75-3.02,8.97-7.76,9.45l-55.92,5.33C284.07,359.82,283.79,359.84,283.52,359.84z"></path> <path class="st2" d="M401.14,409.64c-4.47,0-8.2-3.41-8.62-7.86l-10.71-112.3c-0.38-3.91,1.92-7.58,5.6-8.95 c3.68-1.38,7.82-0.11,10.1,3.08l57.19,79.9l-7.64-80.23c-0.4-3.14,0.95-6.25,3.5-8.11c2.55-1.86,5.93-2.18,8.79-0.84 c2.87,1.34,4.77,4.14,4.98,7.3l10.7,112.3c0.37,3.9-1.93,7.57-5.6,8.94c-3.67,1.38-7.81,0.12-10.09-3.07l-57.19-79.9l7.64,80.25 c0.45,4.77-3.04,9-7.81,9.46C401.69,409.6,401.45,409.64,401.14,409.64z"></path> </g> <path d="M261.83,18.14c-1.11,0-2.21-0.21-3.24-0.62c-0.9-0.12-1.81-0.17-2.73-0.16c-4.61,0.71-8.95-2.35-9.83-6.93 c-0.89-4.57,2-9.03,6.54-10.1c1.02-0.24,2.05-0.35,3.1-0.33c2.33-0.05,4.66,0.17,6.94,0.67c0.84,0.18,1.66,0.43,2.46,0.74 c3.86,1.55,6.08,5.62,5.29,9.7C269.56,15.2,265.98,18.14,261.83,18.14z"></path> <path class="st3" d="M455.26,242.99c-2.56,0-4.98-1.12-6.64-3.07L274.02,33.38c-1.32-1.57-2.04-3.55-2.04-5.61 c-0.02-3.87,2.52-7.29,6.24-8.37c3.71-1.09,7.7,0.42,9.77,3.69l173.89,205.67c2.15,2.58,2.62,6.17,1.2,9.22 C461.67,241.02,458.62,242.97,455.26,242.99z"></path> <path class="st3" d="M47.4,286.38c-3.29,0-6.29-1.86-7.76-4.8c-1.47-2.94-1.15-6.46,0.82-9.09l182.3-244.72 c2.87-3.84,8.32-4.61,12.15-1.74c3.84,2.88,4.61,8.32,1.74,12.15L54.34,282.91C52.7,285.09,50.13,286.38,47.4,286.38z"></path> <path class="st4" d="M255.66,69.43c-19.17,0-34.71-15.54-34.71-34.71s15.54-34.71,34.71-34.71s34.71,15.54,34.71,34.71 c0,9.21-3.66,18.03-10.16,24.54C273.7,65.77,264.87,69.43,255.66,69.43z"></path> </svg> 