<?xml version="1.0" encoding="UTF-8"?> <svg xmlns="http://www.w3.org/2000/svg" width="49" height="50" viewBox="0 0 49 50" fill="none"><g clip-path="url(#clip0_740_2551)"><path d="M45.3649 43.6337C37.8363 51.211 25.6296 51.211 18.1009 43.6337L5.64651 31.0986C-1.88217 23.5212 -1.88217 11.2356 5.64651 3.6582L19.9268 18.0308L16.9526 21.0242C15.5075 22.4787 15.5075 24.8368 16.9526 26.2912L22.8775 32.2544C24.3226 33.7089 26.6655 33.7089 28.1106 32.2544L31.0848 29.261L45.3649 43.6337Z" fill="url(#paint0_linear_740_2551)"></path><path d="M13.555 24.4439C12.1099 25.8984 12.1099 28.2565 13.555 29.7109L19.4799 35.6742C20.925 37.1286 23.2679 37.1285 24.7131 35.6742L28.1106 32.2546C26.6655 33.7091 24.3226 33.7091 22.8775 32.2546L16.9526 26.2914C15.5075 24.8369 15.5075 22.4789 16.9526 21.0244L13.555 24.4439Z" fill="url(#paint1_linear_740_2551)"></path><path d="M25.5565 33.3447C24.5888 33.3611 23.6161 32.9985 22.8776 32.2554L16.9527 26.2922C16.2143 25.549 15.8541 24.5699 15.8704 23.5959L1.72138 9.35547C-1.50295 16.5055 -0.195362 25.2197 5.64664 31.0995L18.1011 43.6345C23.943 49.5142 32.6013 50.8303 39.7054 47.5852L25.5565 33.3447Z" fill="url(#paint2_linear_740_2551)"></path><path d="M28.1104 32.2552C26.6653 33.7097 24.3224 33.7097 22.8773 32.2552L19.9148 29.2736L11.8735 37.3668L18.1008 43.6343C25.6295 51.2117 37.8362 51.2117 45.3648 43.6343L31.0847 29.2617L28.1104 32.2552Z" fill="url(#paint3_linear_740_2551)"></path><path d="M12.9034 18.0311L5.64653 10.7273C3.70701 8.77521 3.70701 5.61036 5.64653 3.65839C7.58605 1.70632 10.7306 1.70632 12.67 3.65839L19.9269 10.9622C21.8664 12.9143 21.8664 16.0791 19.9269 18.0311C17.9875 19.9832 14.8429 19.9832 12.9034 18.0311Z" fill="url(#paint4_linear_740_2551)"></path><path d="M13.7767 16.37L7.29709 9.84848C5.91074 8.45316 5.91074 6.19084 7.29709 4.79552C8.68345 3.40019 10.9312 3.40019 12.3176 4.79552L18.7972 11.317C20.1835 12.7123 20.1835 14.9747 18.7972 16.37C17.4107 17.7653 15.163 17.7653 13.7767 16.37Z" fill="url(#paint5_linear_740_2551)"></path><path d="M18.7972 11.317L12.3176 4.79552C10.9312 3.40019 8.68345 3.40019 7.29709 4.79552C7.14071 4.95291 7.003 5.12176 6.88184 5.2987C8.26475 4.34001 10.1723 4.47862 11.4023 5.71665L17.8819 12.2381C19.1118 13.4761 19.2496 15.396 18.2971 16.7878C18.4729 16.666 18.6407 16.5273 18.7971 16.3699C20.1835 14.9747 20.1835 12.7123 18.7972 11.317Z" fill="url(#paint6_linear_740_2551)"></path><path d="M38.3414 43.6336L31.0845 36.3298C29.145 34.3778 29.145 31.2129 31.0845 29.2609C33.024 27.3089 36.1686 27.3089 38.108 29.2609L45.3649 36.5648C47.3044 38.5168 47.3044 41.6817 45.3649 43.6336C43.4254 45.5856 40.2809 45.5856 38.3414 43.6336Z" fill="url(#paint7_linear_740_2551)"></path><path d="M39.2147 41.9725L32.7351 35.451C31.3487 34.0557 31.3487 31.7934 32.7351 30.3981C34.1214 29.0027 36.3692 29.0027 37.7556 30.3981L44.2352 36.9196C45.6215 38.3149 45.6215 40.5772 44.2352 41.9725C42.8487 43.3678 40.601 43.3678 39.2147 41.9725Z" fill="url(#paint8_linear_740_2551)"></path><path d="M44.2352 36.9195L37.7556 30.3981C36.3692 29.0027 34.1214 29.0027 32.7351 30.3981C32.5787 30.5554 32.441 30.7243 32.3198 30.9012C33.7027 29.9425 35.6103 30.0812 36.8403 31.3192L43.3198 37.8407C44.5498 39.0786 44.6876 40.9985 43.7351 42.3904C43.9109 42.2685 44.0787 42.1298 44.2351 41.9724C45.6215 40.5772 45.6215 38.3149 44.2352 36.9195Z" fill="url(#paint9_linear_740_2551)"></path><path d="M45.3651 43.6336C47.3046 41.6816 47.3046 38.5167 45.3651 36.5647L39.5839 30.7461L23.1455 47.2906C30.3592 50.9028 39.3534 49.6841 45.3651 43.6336Z" fill="url(#paint10_linear_740_2551)"></path></g><defs><linearGradient id="paint0_linear_740_2551" x1="20.4995" y1="28.6794" x2="11.1643" y2="37.9546" gradientUnits="userSpaceOnUse"><stop stop-color="#BBEC6C"></stop><stop offset="1" stop-color="#81B823"></stop></linearGradient><linearGradient id="paint1_linear_740_2551" x1="16.5752" y1="32.6292" x2="20.7905" y2="28.441" gradientUnits="userSpaceOnUse"><stop stop-color="#BBEC6C"></stop><stop offset="1" stop-color="#81B823"></stop></linearGradient><linearGradient id="paint2_linear_740_2551" x1="15.1836" y1="34.0306" x2="10.7908" y2="38.3952" gradientUnits="userSpaceOnUse"><stop stop-color="#026841" stop-opacity="0"></stop><stop offset="0.2391" stop-color="#0A6644" stop-opacity="0.239"></stop><stop offset="0.6113" stop-color="#20604D" stop-opacity="0.611"></stop><stop offset="1" stop-color="#3E5959"></stop></linearGradient><linearGradient id="paint3_linear_740_2551" x1="28.6774" y1="42.1226" x2="29.0157" y2="51.3106" gradientUnits="userSpaceOnUse"><stop stop-color="#026841" stop-opacity="0"></stop><stop offset="0.2391" stop-color="#0A6644" stop-opacity="0.239"></stop><stop offset="0.6113" stop-color="#20604D" stop-opacity="0.611"></stop><stop offset="1" stop-color="#3E5959"></stop></linearGradient><linearGradient id="paint4_linear_740_2551" x1="15.8504" y1="7.75999" x2="8.29525" y2="15.2665" gradientUnits="userSpaceOnUse"><stop stop-color="#BBEC6C"></stop><stop offset="1" stop-color="#81B823"></stop></linearGradient><linearGradient id="paint5_linear_740_2551" x1="15.6591" y1="7.95236" x2="4.98648" y2="18.5564" gradientUnits="userSpaceOnUse"><stop stop-color="#026841" stop-opacity="0"></stop><stop offset="0.2391" stop-color="#0A6644" stop-opacity="0.239"></stop><stop offset="0.6113" stop-color="#20604D" stop-opacity="0.611"></stop><stop offset="1" stop-color="#3E5959"></stop></linearGradient><linearGradient id="paint6_linear_740_2551" x1="17.4962" y1="6.10352" x2="9.73658" y2="13.8133" gradientUnits="userSpaceOnUse"><stop stop-color="#026841" stop-opacity="0"></stop><stop offset="0.2391" stop-color="#0A6644" stop-opacity="0.239"></stop><stop offset="0.6113" stop-color="#20604D" stop-opacity="0.611"></stop><stop offset="1" stop-color="#3E5959"></stop></linearGradient><linearGradient id="paint7_linear_740_2551" x1="41.2846" y1="33.3586" x2="33.7295" y2="40.8652" gradientUnits="userSpaceOnUse"><stop stop-color="#BBEC6C"></stop><stop offset="1" stop-color="#81B823"></stop></linearGradient><linearGradient id="paint8_linear_740_2551" x1="41.0933" y1="33.5511" x2="30.4207" y2="44.1552" gradientUnits="userSpaceOnUse"><stop stop-color="#026841" stop-opacity="0"></stop><stop offset="0.2391" stop-color="#0A6644" stop-opacity="0.239"></stop><stop offset="0.6113" stop-color="#20604D" stop-opacity="0.611"></stop><stop offset="1" stop-color="#3E5959"></stop></linearGradient><linearGradient id="paint9_linear_740_2551" x1="42.9304" y1="31.7023" x2="35.1708" y2="39.412" gradientUnits="userSpaceOnUse"><stop stop-color="#026841" stop-opacity="0"></stop><stop offset="0.2391" stop-color="#0A6644" stop-opacity="0.239"></stop><stop offset="0.6113" stop-color="#20604D" stop-opacity="0.611"></stop><stop offset="1" stop-color="#3E5959"></stop></linearGradient><linearGradient id="paint10_linear_740_2551" x1="36.8482" y1="45.36" x2="39.5422" y2="48.929" gradientUnits="userSpaceOnUse"><stop stop-color="#026841" stop-opacity="0"></stop><stop offset="0.2391" stop-color="#0A6644" stop-opacity="0.239"></stop><stop offset="0.6113" stop-color="#20604D" stop-opacity="0.611"></stop><stop offset="1" stop-color="#3E5959"></stop></linearGradient><clipPath id="clip0_740_2551"><rect width="49" height="49.317" fill="white"></rect></clipPath></defs></svg> 