<?xml version="1.0" encoding="UTF-8"?> <svg xmlns="http://www.w3.org/2000/svg" xmlns:xlink="http://www.w3.org/1999/xlink" version="1.1" id="Capa_1" x="0px" y="0px" viewBox="0 0 65 65" style="enable-background:new 0 0 65 65;" xml:space="preserve"> <style type="text/css"> .st0{fill:url(#SVGID_1_);} .st1{fill:url(#SVGID_00000093147071365293271340000010817601788175119280_);} .st2{fill:url(#SVGID_00000131359334967494523970000018192862184414244532_);} .st3{fill:url(#SVGID_00000067210816286646717080000007235537640554025354_);} .st4{fill:url(#SVGID_00000091701853490355108450000000439637220508816272_);} .st5{fill:url(#SVGID_00000163790338627070561770000011496673917387207048_);} .st6{fill:url(#SVGID_00000072238925906598248230000006970417332680661154_);} .st7{fill:url(#SVGID_00000103264707224532762490000015492313236745675659_);} .st8{fill:url(#SVGID_00000026153350542711726210000005210441881602476418_);} </style> <g> <linearGradient id="SVGID_1_" gradientUnits="userSpaceOnUse" x1="-10.7939" y1="-62.8441" x2="30.2235" y2="-62.8441" gradientTransform="matrix(1 0 0 -1 0 64.89)"> <stop offset="0" style="stop-color:#FFA1AE"></stop> <stop offset="1" style="stop-color:#FF4565"></stop> </linearGradient> <path class="st0" d="M14.8,95.23c-14.06-0.1-25.49,11.27-25.49,25.31c0,5.71,1.89,10.98,5.08,15.22l16.37,22.5 c1.91,2.62,5.81,2.62,7.72,0l16.37-22.5c3.15-4.18,5.04-9.38,5.08-15.01C40.05,106.82,28.74,95.33,14.8,95.23z M14.62,134.48 c-7.69,0-13.93-6.23-13.93-13.93c0-7.69,6.23-13.93,13.93-13.93s13.93,6.23,13.93,13.93C28.55,128.24,22.31,134.48,14.62,134.48 L14.62,134.48z"></path> <linearGradient id="SVGID_00000039119624304088512620000004598174596834464140_" gradientUnits="userSpaceOnUse" x1="27.1334" y1="-68.1699" x2="3.538" y2="-44.5747" gradientTransform="matrix(1 0 0 -1 0 64.89)"> <stop offset="0" style="stop-color:#FFA1AE"></stop> <stop offset="1" style="stop-color:#FF4565"></stop> </linearGradient> <path style="fill:url(#SVGID_00000039119624304088512620000004598174596834464140_);" d="M14.62,102.67 c-9.87,0-17.88,8-17.88,17.88c0,9.87,8,17.88,17.88,17.88s17.88-8,17.88-17.88C32.5,110.67,24.49,102.67,14.62,102.67L14.62,102.67 z M14.62,133.1c-6.93,0-12.55-5.62-12.55-12.56s5.62-12.55,12.55-12.55s12.55,5.62,12.55,12.55 C27.18,127.48,21.56,133.1,14.62,133.1z"></path> <linearGradient id="SVGID_00000178204144850219027980000010547896160558772623_" gradientUnits="userSpaceOnUse" x1="21.2475" y1="-68.9736" x2="31.1981" y2="-77.0446" gradientTransform="matrix(1 0 0 -1 0 64.89)"> <stop offset="0" style="stop-color:#FE0364;stop-opacity:0"></stop> <stop offset="0.2343" style="stop-color:#F90362;stop-opacity:0.234"></stop> <stop offset="0.5173" style="stop-color:#EA035B;stop-opacity:0.517"></stop> <stop offset="0.8243" style="stop-color:#D20250;stop-opacity:0.824"></stop> <stop offset="1" style="stop-color:#C00148"></stop> </linearGradient> <path style="fill:url(#SVGID_00000178204144850219027980000010547896160558772623_);" d="M27.18,120.55 c0,6.93-5.62,12.56-12.55,12.56s-12.55-5.62-12.55-12.56c0-1.8,0.38-3.51,1.07-5.06h-13.32c-0.33,1.64-0.51,3.33-0.51,5.06 c0,5.71,1.89,10.98,5.08,15.22l16.37,22.5c1.91,2.62,5.81,2.62,7.72,0l16.37-22.5c3.15-4.18,5.04-9.38,5.08-15.01 c0.01-1.81-0.16-3.57-0.51-5.27H26.11C26.79,117.03,27.18,118.75,27.18,120.55z"></path> <linearGradient id="SVGID_00000150793578684918553070000009767670759032965809_" gradientUnits="userSpaceOnUse" x1="24.6938" y1="-64.2615" x2="37.7402" y2="-66.2516" gradientTransform="matrix(1 0 0 -1 0 64.89)"> <stop offset="0" style="stop-color:#FE0364;stop-opacity:0"></stop> <stop offset="0.2343" style="stop-color:#F90362;stop-opacity:0.234"></stop> <stop offset="0.5173" style="stop-color:#EA035B;stop-opacity:0.517"></stop> <stop offset="0.8243" style="stop-color:#D20250;stop-opacity:0.824"></stop> <stop offset="1" style="stop-color:#C00148"></stop> </linearGradient> <path style="fill:url(#SVGID_00000150793578684918553070000009767670759032965809_);" d="M14.8,95.23 c-1.49-0.01-2.95,0.11-4.37,0.35v13.13c1.31-0.46,2.72-0.72,4.19-0.72c6.93,0,12.55,5.62,12.55,12.55s-5.62,12.56-12.55,12.56 c-1.47,0-2.88-0.25-4.19-0.72v25.43l0.33,0.45c1.91,2.62,5.81,2.62,7.72,0l16.37-22.5c3.15-4.18,5.04-9.38,5.08-15.01 C40.05,106.82,28.74,95.33,14.8,95.23z"></path> <linearGradient id="SVGID_00000129199316246049113350000016817160869320381086_" gradientUnits="userSpaceOnUse" x1="30.8811" y1="-56.6441" x2="39.2839" y2="-53.6589" gradientTransform="matrix(1 0 0 -1 0 64.89)"> <stop offset="0" style="stop-color:#FE0364;stop-opacity:0"></stop> <stop offset="0.2343" style="stop-color:#F90362;stop-opacity:0.234"></stop> <stop offset="0.5173" style="stop-color:#EA035B;stop-opacity:0.517"></stop> <stop offset="0.8243" style="stop-color:#D20250;stop-opacity:0.824"></stop> <stop offset="1" style="stop-color:#C00148"></stop> </linearGradient> <path style="fill:url(#SVGID_00000129199316246049113350000016817160869320381086_);" d="M14.8,95.23 c-1.49-0.01-2.95,0.11-4.37,0.35v13.13c1.31-0.46,2.72-0.72,4.19-0.72c6.93,0,12.55,5.62,12.55,12.55s-5.62,12.56-12.55,12.56 c-1.47,0-2.88-0.25-4.19-0.72v25.43l0.33,0.45c1.91,2.62,5.81,2.62,7.72,0l16.37-22.5c3.15-4.18,5.04-9.38,5.08-15.01 C40.05,106.82,28.74,95.33,14.8,95.23z"></path> <g> <g> <linearGradient id="SVGID_00000152979346721601374350000001429927674766641079_" gradientUnits="userSpaceOnUse" x1="9.9003" y1="-50.9373" x2="17.9573" y2="-58.9942" gradientTransform="matrix(1 0 0 -1 0 64.89)"> <stop offset="0" style="stop-color:#F5FBFF"></stop> <stop offset="1" style="stop-color:#DBD5EF"></stop> </linearGradient> <circle style="fill:url(#SVGID_00000152979346721601374350000001429927674766641079_);" cx="14.62" cy="120.55" r="9.07"></circle> <linearGradient id="SVGID_00000120545334946878277940000012799452307376165543_" gradientUnits="userSpaceOnUse" x1="14.6215" y1="-55.1905" x2="14.6215" y2="-65.0847" gradientTransform="matrix(1 0 0 -1 0 64.89)"> <stop offset="0" style="stop-color:#DBD5EF;stop-opacity:0"></stop> <stop offset="0.2853" style="stop-color:#D9D2EE;stop-opacity:0.285"></stop> <stop offset="0.4739" style="stop-color:#D4C9E9;stop-opacity:0.474"></stop> <stop offset="0.6346" style="stop-color:#CBBAE2;stop-opacity:0.635"></stop> <stop offset="0.7795" style="stop-color:#BFA5D7;stop-opacity:0.78"></stop> <stop offset="0.9126" style="stop-color:#AF8ACA;stop-opacity:0.913"></stop> <stop offset="1" style="stop-color:#A274BF"></stop> </linearGradient> <path style="fill:url(#SVGID_00000120545334946878277940000012799452307376165543_);" d="M5.55,120.55 c0,5.01,4.06,9.07,9.07,9.07s9.07-4.06,9.07-9.07c0-1.09-0.19-2.13-0.54-3.09H6.09C5.74,118.42,5.55,119.46,5.55,120.55 L5.55,120.55z"></path> <linearGradient id="SVGID_00000035492792128666663590000014828637182574383761_" gradientUnits="userSpaceOnUse" x1="14.0326" y1="-55.1505" x2="21.9363" y2="-61.9683" gradientTransform="matrix(1 0 0 -1 0 64.89)"> <stop offset="0" style="stop-color:#DBD5EF;stop-opacity:0"></stop> <stop offset="0.2853" style="stop-color:#D9D2EE;stop-opacity:0.285"></stop> <stop offset="0.4739" style="stop-color:#D4C9E9;stop-opacity:0.474"></stop> <stop offset="0.6346" style="stop-color:#CBBAE2;stop-opacity:0.635"></stop> <stop offset="0.7795" style="stop-color:#BFA5D7;stop-opacity:0.78"></stop> <stop offset="0.9126" style="stop-color:#AF8ACA;stop-opacity:0.913"></stop> <stop offset="1" style="stop-color:#A274BF"></stop> </linearGradient> <path style="fill:url(#SVGID_00000035492792128666663590000014828637182574383761_);" d="M8.21,126.96 c3.54,3.54,9.29,3.54,12.83,0c3.54-3.54,3.54-9.29,0-12.83c-0.77-0.77-1.64-1.37-2.57-1.8L6.4,124.4 C6.84,125.33,7.44,126.2,8.21,126.96L8.21,126.96z"></path> </g> </g> </g> <g> <linearGradient id="SVGID_00000107583721938679199900000006677164854945585849_" gradientUnits="userSpaceOnUse" x1="-553.742" y1="611.6439" x2="-486.1919" y2="611.6439" gradientTransform="matrix(0.8192 -0.5736 0.5736 0.8192 117.7722 -764.5599)"> <stop offset="0" style="stop-color:#006EAC"></stop> <stop offset="1" style="stop-color:#4DB0E4"></stop> </linearGradient> <path style="fill:url(#SVGID_00000107583721938679199900000006677164854945585849_);" d="M59.38,6.22 C50.84,9.76,14.22,24.93,4.1,29.06c-6.79,2.65-2.81,5.13-2.81,5.13s5.79,1.99,10.76,3.48c4.96,1.49,7.61-0.17,7.61-0.17 l23.33-15.72c8.27-5.63,6.29-0.99,4.3,0.99c-4.3,4.3-11.42,11.09-17.38,16.55c-2.65,2.32-1.32,4.3-0.16,5.3 c4.3,3.64,16.05,11.09,16.71,11.59c3.5,2.48,10.37,6.04,11.42-1.49l4.14-25.98c1.32-8.77,2.65-16.88,2.81-19.2 C65.34,3.91,59.38,6.22,59.38,6.22z"></path> </g> </svg> 