<?xml version="1.0" encoding="UTF-8"?> <svg xmlns="http://www.w3.org/2000/svg" width="24" height="20" viewBox="0 0 24 20" fill="none"><path d="M21.8766 0.173279C18.7234 1.48036 5.20213 7.08159 1.46552 8.60651C-1.04156 9.58497 0.42798 10.5007 0.42798 10.5007C0.42798 10.5007 2.56583 11.2354 4.4009 11.7856C6.23229 12.3357 7.21075 11.7228 7.21075 11.7228L15.8249 5.91851C18.8784 3.83974 18.1474 5.55297 17.4126 6.28405C15.8249 7.87174 13.196 10.3788 10.9954 12.3948C10.0169 13.2514 10.508 13.9825 10.9363 14.3517C12.524 15.6957 16.8624 18.4465 17.1061 18.6311C18.3984 19.5468 20.9351 20.8613 21.3227 18.081L22.8514 8.48836C23.3387 5.2502 23.8298 2.25574 23.8889 1.39913C24.0772 -0.679644 21.8766 0.173279 21.8766 0.173279Z" fill="#23C229"></path></svg> 