<svg width="70" height="68" viewBox="0 0 70 68" fill="none" xmlns="http://www.w3.org/2000/svg">
<path d="M39.1125 34L57.4875 16.1784C58.0367 15.6448 58.3453 14.9212 58.3453 14.1667C58.3453 13.4122 58.0367 12.6886 57.4875 12.155C56.9383 11.6215 56.1934 11.3218 55.4167 11.3218C54.64 11.3218 53.8951 11.6215 53.3459 12.155L35 30.005L16.6542 12.155C16.105 11.6215 15.3601 11.3218 14.5834 11.3218C13.8066 11.3218 13.0617 11.6215 12.5125 12.155C11.9633 12.6886 11.6548 13.4122 11.6548 14.1667C11.6548 14.9212 11.9633 15.6448 12.5125 16.1784L30.8875 34L12.5125 51.8217C12.2392 52.0851 12.0222 52.3985 11.8741 52.7437C11.726 53.089 11.6498 53.4593 11.6498 53.8334C11.6498 54.2074 11.726 54.5777 11.8741 54.923C12.0222 55.2683 12.2392 55.5816 12.5125 55.845C12.7837 56.1106 13.1063 56.3214 13.4617 56.4652C13.8171 56.6091 14.1983 56.6831 14.5834 56.6831C14.9684 56.6831 15.3496 56.6091 15.705 56.4652C16.0605 56.3214 16.383 56.1106 16.6542 55.845L35 37.995L53.3459 55.845C53.617 56.1106 53.9396 56.3214 54.295 56.4652C54.6504 56.6091 55.0317 56.6831 55.4167 56.6831C55.8017 56.6831 56.1829 56.6091 56.5384 56.4652C56.8938 56.3214 57.2164 56.1106 57.4875 55.845C57.7609 55.5816 57.9779 55.2683 58.126 54.923C58.274 54.5777 58.3503 54.2074 58.3503 53.8334C58.3503 53.4593 58.274 53.089 58.126 52.7437C57.9779 52.3985 57.7609 52.0851 57.4875 51.8217L39.1125 34Z" fill="#F99A30"/>
</svg>
