<svg width="30" height="35" viewBox="0 0 30 35" fill="none" xmlns="http://www.w3.org/2000/svg">
<path d="M28.8781 9.91211C29.6673 9.91211 30.2144 9.1806 29.9185 8.50978C28.8678 6.12808 26.3195 4.44336 23.3498 4.44336H21.977C21.4651 1.96376 19.0941 0 16.1928 0H13.8072C10.9078 0 8.53523 1.96246 8.02298 4.44336H6.65019C3.68048 4.44336 1.13215 6.12808 0.0814909 8.50978C-0.214406 9.1806 0.332731 9.91211 1.12186 9.91211H28.8781ZM13.8072 2.05078H16.1928C17.8255 2.05078 19.2114 3.05799 19.678 4.44336H10.322C10.7886 3.05799 12.1745 2.05078 13.8072 2.05078Z" fill="#C4C4C4"/>
<path d="M4.19418 32.1423C4.31861 33.7448 5.78855 35 7.54052 35H22.4599C24.2119 35 25.6818 33.7448 25.8063 32.1423L27.3736 11.9629H2.62695L4.19418 32.1423ZM18.0583 17.4488C18.0892 16.8832 18.6151 16.447 19.231 16.4759C19.8478 16.5042 20.3229 16.9857 20.292 17.5512L19.6956 28.4887C19.6657 29.0369 19.1716 29.4629 18.5796 29.4629C17.9357 29.4629 17.4301 28.9691 17.4618 28.3863L18.0583 17.4488ZM10.7695 16.4759C11.3855 16.4475 11.9114 16.8833 11.9422 17.4488L12.5386 28.3863C12.5704 28.9694 12.0643 29.4629 11.4208 29.4629C10.8289 29.4629 10.3347 29.0369 10.3048 28.4887L9.70842 17.5512C9.67763 16.9857 10.1527 16.5042 10.7695 16.4759Z" fill="#C4C4C4"/>
</svg>
