<svg width="16" height="16" viewBox="0 0 16 16" fill="none" xmlns="http://www.w3.org/2000/svg">
<circle cx="8" cy="8" r="7.5" stroke="white"/>
<path d="M7.978 11.571C7.89133 11.571 7.822 11.545 7.77 11.493C7.718 11.441 7.692 11.3717 7.692 11.285V8.438H4.871C4.78433 8.438 4.715 8.412 4.663 8.36C4.611 8.308 4.585 8.23867 4.585 8.152V7.97C4.585 7.88333 4.611 7.814 4.663 7.762C4.715 7.71 4.78433 7.684 4.871 7.684H7.692V4.915C7.692 4.82833 7.718 4.759 7.77 4.707C7.822 4.655 7.89133 4.629 7.978 4.629H8.173C8.25967 4.629 8.329 4.655 8.381 4.707C8.433 4.759 8.459 4.82833 8.459 4.915V7.684H11.293C11.3797 7.684 11.449 7.71 11.501 7.762C11.553 7.814 11.579 7.88333 11.579 7.97V8.152C11.579 8.23867 11.553 8.308 11.501 8.36C11.449 8.412 11.3797 8.438 11.293 8.438H8.459V11.285C8.459 11.3717 8.433 11.441 8.381 11.493C8.329 11.545 8.25967 11.571 8.173 11.571H7.978Z" fill="white"/>
</svg>
