<svg width="21" height="20" viewBox="0 0 21 20" fill="none" xmlns="http://www.w3.org/2000/svg">
<path d="M14.5 16C15.6 16 16.5 16.9 16.5 18C16.5 19.1 15.6 20 14.5 20C13.4 20 12.5 19.1 12.5 18C12.5 16.9 13.4 16 14.5 16ZM20.5 0V2H18.5L14.9 9.6L16.3 12C16.4 12.3 16.5 12.7 16.5 13C16.5 14.1 15.6 15 14.5 15H2.5V13H14.1C14.2 13 14.3 12.9 14.3 12.8V12.7L13.4 11H6C5.2 11 4.6 10.6 4.3 9.99996L0.699999 3.5C0.5 3.3 0.5 3.2 0.5 3C0.5 2.4 0.9 2 1.5 2H16.3L17.2 0H20.5ZM4.5 16C5.6 16 6.5 16.9 6.5 18C6.5 19.1 5.6 20 4.5 20C3.4 20 2.5 19.1 2.5 18C2.5 16.9 3.4 16 4.5 16Z" fill="white"/>
</svg>
