<svg width="91" height="54" viewBox="0 0 91 54" fill="none" xmlns="http://www.w3.org/2000/svg">
<path d="M46.956 18C46.5617 18.012 46.1825 18.174 45.9034 18.456L37.9015 26.346L32.9723 21.486C31.5922 20.064 29.3627 22.26 30.8035 23.622L36.8186 29.556C37.4162 30.147 38.3868 30.147 38.9874 29.556L48.0723 20.595C49.0733 19.635 48.3362 18 46.959 18H46.956ZM1.51667 30H10.6167C11.4569 30 12.1333 30.669 12.1333 31.5C12.1333 32.331 11.4569 33 10.6167 33H1.51667C0.676433 33 0 32.331 0 31.5C0 30.669 0.676433 30 1.51667 30ZM1.51667 18H10.6167C11.4569 18 12.1333 18.669 12.1333 19.5C12.1333 20.331 11.4569 21 10.6167 21H1.51667C0.676433 21 0 20.331 0 19.5C0 18.669 0.676433 18 1.51667 18ZM1.51667 6H10.6167C11.4569 6 12.1333 6.669 12.1333 7.5C12.1333 8.331 11.4569 9 10.6167 9H1.51667C0.676433 9 0 8.331 0 7.5C0 6.669 0.676433 6 1.51667 6ZM74.3167 39C70.1458 39 66.7333 42.375 66.7333 46.5C66.7333 50.625 70.1458 54 74.3167 54C78.4875 54 81.9 50.625 81.9 46.5C81.9 42.375 78.4875 39 74.3167 39ZM74.3167 42C76.8465 42 78.8667 43.998 78.8667 46.5C78.8667 49.002 76.8465 51 74.3167 51C71.7869 51 69.7667 49.002 69.7667 46.5C69.7667 43.998 71.7869 42 74.3167 42ZM34.8833 39C30.7125 39 27.3 42.375 27.3 46.5C27.3 50.625 30.7125 54 34.8833 54C39.0542 54 42.4667 50.625 42.4667 46.5C42.4667 42.375 39.0542 39 34.8833 39ZM34.8833 42C37.4131 42 39.4333 43.998 39.4333 46.5C39.4333 49.002 37.4131 51 34.8833 51C32.3535 51 30.3333 49.002 30.3333 46.5C30.3333 43.998 32.3535 42 34.8833 42ZM19.7167 0C17.2233 0 15.1667 2.034 15.1667 4.5V37.5C15.1667 39.966 17.2233 42 19.7167 42H25.7833C27.8339 42.03 27.8339 38.97 25.7833 39H19.7167C18.8491 39 18.2 38.358 18.2 37.5V4.5C18.2 3.642 18.8491 3 19.7167 3H59.15C60.0175 3 60.6667 3.642 60.6667 4.5V39H43.9833C41.9813 39 42.0177 42.03 43.9833 42H65.2167C67.2187 42 67.2005 39 65.2167 39H63.7V12H76.5219L87.9667 29.688V37.5C87.9667 38.358 87.3175 39 86.45 39H83.4167C81.4329 39 81.4329 42 83.4167 42H86.45C88.9434 42 91 39.966 91 37.5V29.25C91 28.965 90.9181 28.68 90.7634 28.44L78.6301 9.69C78.351 9.261 77.8717 9 77.35 9H63.7V4.5C63.7 2.034 61.6434 0 59.15 0H19.7167Z" fill="#23C229"/>
</svg>
