<svg width="70" height="70" viewBox="0 0 70 70" fill="none" xmlns="http://www.w3.org/2000/svg">
<g clip-path="url(#clip0_1_880)">
<path d="M66.5 39.6562H46.6305C46.6539 39.1997 46.6659 38.7408 46.6666 38.2796C46.6666 14.6418 25.9175 0.770136 25.0343 0.191406C24.6195 -0.0713679 24.0845 -0.0460749 23.6961 0.254433C23.3034 0.559862 23.1428 1.07775 23.2936 1.55176C23.6856 2.79303 27.0374 13.8169 24.0963 18.9234C23.4448 20.115 22.2991 20.9571 20.9673 21.2228C18.7039 21.7303 16.9727 21.4714 15.8211 20.4564C13.5402 18.4427 13.9323 14.0398 13.9357 13.993C13.9798 13.5049 13.714 13.0413 13.2706 12.8326C12.8271 12.6239 12.3004 12.7146 11.9525 13.0596C6.49715 18.5396 0 27.3561 0 38.2796C0 43.0944 1.4618 58.813 20.0061 60.4976L26.1673 67.8896C27.274 69.2216 28.9167 69.9914 30.6485 69.9896H66.5C68.4329 69.9896 70 68.4225 70 66.4896V43.1562C70 41.2233 68.4331 39.6562 66.5 39.6562ZM2.33338 38.2796C2.33338 29.3803 7.06535 21.9078 11.7005 16.7219C11.8795 18.7961 12.7891 20.7393 14.2671 22.2053C16.0089 23.7489 18.4321 24.1887 21.4736 23.5073C23.4454 23.0999 25.1411 21.8523 26.117 20.0912C28.5973 15.7816 27.4704 8.56105 26.425 4.17443C31.9982 8.75014 44.3334 20.8566 44.3334 38.2796C44.3334 38.7462 44.2902 39.1978 44.2646 39.6562H36.4478C35.0093 35.1441 32.592 31.0054 29.3686 27.5357C29.0408 27.1724 28.5213 27.0523 28.0674 27.2346C27.6135 27.417 27.3216 27.8633 27.3362 28.3523C27.5034 30.4764 27.0931 32.6061 26.1486 34.5159C25.3086 36.0128 23.8622 37.0733 22.1819 37.4244C19.4519 38.0498 17.2282 37.4769 15.7548 35.8739C15.5609 35.658 15.3835 35.4279 15.2239 35.1855C15.0112 34.8657 14.6547 34.6712 14.2707 34.6652C13.8883 34.6661 13.5287 34.8478 13.3012 35.1552C10.6617 38.6109 9.17943 42.811 9.065 47.1578C8.97586 50.2206 9.85209 53.234 11.5698 55.7714C3.41018 51.4175 2.33338 42.5951 2.33338 38.2796ZM17.15 57.0628L17.3286 57.2775C12.5277 55.3128 11.3984 50.8713 11.3984 47.1578C11.4747 43.8129 12.5012 40.5587 14.3582 37.7755C16.6116 39.8311 19.7753 40.5602 22.7011 39.6982C25.0209 39.2082 27.0162 37.7401 28.1739 35.6709C28.8989 34.3401 29.3586 32.8813 29.5273 31.3752C31.4661 33.8704 32.9801 36.6682 34.0085 39.6562H30.6485C28.9167 39.6544 27.274 40.4242 26.1673 41.7562L17.1501 52.5828C16.0691 53.8807 16.0691 55.7652 17.15 57.0628ZM67.6666 66.4896C67.6666 67.134 67.1444 67.6562 66.5 67.6562H30.6484C29.6112 67.6554 28.6281 67.1937 27.965 66.3962L18.9432 55.5696C18.5829 55.137 18.5829 54.5088 18.9432 54.0762L27.9673 43.2496C28.6295 42.4521 29.6119 41.9904 30.6484 41.9896H66.5C67.1444 41.9896 67.6666 42.5119 67.6666 43.1562V66.4896Z" fill="#23C229"/>
<path d="M33.8307 48.9896C35.1194 48.9896 36.1641 50.0343 36.1641 51.323C36.1641 51.9674 36.6863 52.4896 37.3307 52.4896C37.975 52.4896 38.4973 51.9674 38.4973 51.323C38.4973 48.7457 36.408 46.6564 33.8307 46.6564C31.2534 46.6564 29.1641 48.7457 29.1641 51.323C29.1641 53.9003 31.2534 55.9896 33.8307 55.9896C35.1194 55.9896 36.1641 57.0343 36.1641 58.323C36.1641 59.6117 35.1194 60.6564 33.8307 60.6564C32.542 60.6564 31.4973 59.6117 31.4973 58.323C31.4973 57.6787 30.9749 57.1564 30.3307 57.1564C29.6863 57.1564 29.1641 57.6788 29.1641 58.323C29.1641 60.9003 31.2534 62.9896 33.8307 62.9896C36.408 62.9896 38.4973 60.9003 38.4973 58.323C38.4973 55.7457 36.408 53.6564 33.8307 53.6564C32.542 53.6564 31.4973 52.6117 31.4973 51.323C31.4973 50.0343 32.542 48.9896 33.8307 48.9896Z" fill="#23C229"/>
<path d="M44.3307 46.6561C41.7534 46.6561 39.6641 48.7455 39.6641 51.3228V61.8228C39.6641 62.4671 40.1863 62.9894 40.8307 62.9894C41.475 62.9894 41.9973 62.467 41.9973 61.8228V55.9894H46.6639V61.8228C46.6639 62.4671 47.1863 62.9894 47.8305 62.9894C48.4749 62.9894 48.9972 62.467 48.9972 61.8228V51.3228C48.9973 48.7455 46.908 46.6561 44.3307 46.6561ZM41.9973 53.6561V51.3228C41.9973 50.0341 43.042 48.9894 44.3307 48.9894C45.6194 48.9894 46.6641 50.0341 46.6641 51.3228V53.6561H41.9973Z" fill="#23C229"/>
<path d="M55.9973 60.6561H52.4973V47.8228C52.4973 47.1784 51.9749 46.6561 51.3307 46.6561C50.6863 46.6561 50.1641 47.1784 50.1641 47.8228V61.8228C50.1641 62.4671 50.6865 62.9894 51.3307 62.9894H55.9973C56.6417 62.9894 57.1639 62.467 57.1639 61.8228C57.1639 61.1785 56.6417 60.6561 55.9973 60.6561Z" fill="#23C229"/>
<path d="M64.1692 48.9896C64.8135 48.9896 65.3358 48.4672 65.3358 47.823C65.3358 47.1788 64.8134 46.6564 64.1692 46.6564H59.5026C58.8582 46.6564 58.3359 47.1787 58.3359 47.823V61.823C58.3359 62.4674 58.8582 62.9896 59.5026 62.9896H64.1692C64.8135 62.9896 65.3358 62.4672 65.3358 61.823C65.3358 61.1787 64.8134 60.6564 64.1692 60.6564H60.6692V55.9898H63.0026C63.6469 55.9898 64.1692 55.4675 64.1692 54.8231C64.1692 54.1788 63.6469 53.6565 63.0026 53.6565H60.6692V48.9899H64.1692V48.9896Z" fill="#23C229"/>
<path d="M24.5026 55.9896C25.1469 55.9896 25.6692 55.4673 25.6692 54.823C25.6692 54.1787 25.1469 53.6564 24.5026 53.6564C23.8583 53.6564 23.3359 54.1787 23.3359 54.823C23.3359 55.4673 23.8583 55.9896 24.5026 55.9896Z" fill="#23C229"/>
</g>
<defs>
<clipPath id="clip0_1_880">
<rect width="70" height="70" fill="white"/>
</clipPath>
</defs>
</svg>
