<svg width="70" height="70" viewBox="0 0 70 70" fill="none" xmlns="http://www.w3.org/2000/svg">
<path d="M48.7277 58.919C48.4772 58.9186 48.2351 58.8285 48.0451 58.6652C47.8552 58.5019 47.7299 58.276 47.6919 58.0284C47.6538 57.7808 47.7056 57.5278 47.8378 57.315C47.9699 57.1022 48.1739 56.9437 48.4127 56.868L52.2977 55.65C52.4306 55.6032 52.5715 55.5836 52.7121 55.5924C52.8527 55.6011 52.9902 55.6381 53.1162 55.7011C53.2422 55.7641 53.3543 55.8518 53.4457 55.959C53.5371 56.0662 53.606 56.1908 53.6483 56.3251C53.6906 56.4595 53.7054 56.6011 53.6919 56.7413C53.6783 56.8816 53.6367 57.0176 53.5694 57.1414C53.5022 57.2653 53.4107 57.3743 53.3005 57.462C53.1902 57.5497 53.0634 57.6143 52.9277 57.652L49.0427 58.87C48.941 58.9033 48.8346 58.9199 48.7277 58.919Z" fill="#23C229"/>
<path d="M34.9992 63.175C34.8627 63.1787 34.7268 63.155 34.5995 63.1053C34.4723 63.0557 34.3563 62.981 34.2584 62.8857C34.1605 62.7904 34.0827 62.6765 34.0296 62.5506C33.9765 62.4248 33.9492 62.2896 33.9492 62.153V28C33.9483 27.7764 34.0192 27.5584 34.1515 27.3781C34.2839 27.1979 34.4706 27.065 34.6842 26.999L61.2002 18.732C61.3578 18.6831 61.5246 18.6717 61.6874 18.6984C61.8502 18.7251 62.0045 18.7893 62.1382 18.886C62.2705 18.9841 62.3779 19.1118 62.4521 19.2589C62.5262 19.4059 62.565 19.5683 62.5652 19.733V39.732C62.5652 40.0104 62.4546 40.2775 62.2577 40.4744C62.0608 40.6713 61.7937 40.782 61.5152 40.782C61.2367 40.782 60.9697 40.6713 60.7728 40.4744C60.5759 40.2775 60.4652 40.0104 60.4652 39.732V21.161L36.0772 28.791V62.097C36.0782 62.2388 36.0509 62.3794 35.9971 62.5106C35.9432 62.6418 35.8639 62.761 35.7636 62.8613C35.6633 62.9616 35.5441 63.0409 35.4129 63.0948C35.2816 63.1486 35.1411 63.1759 34.9992 63.175Z" fill="#23C229"/>
<path d="M35.0011 63.203C34.7506 63.2025 34.5085 63.1125 34.3186 62.9492C34.1286 62.7859 34.0033 62.56 33.9653 62.3124C33.9273 62.0648 33.979 61.8118 34.1112 61.599C34.2434 61.3862 34.4473 61.2276 34.6861 61.152L48.3851 56.868C48.5189 56.818 48.6615 56.7958 48.8042 56.8028C48.9469 56.8098 49.0866 56.8458 49.2149 56.9086C49.3432 56.9715 49.4573 57.0599 49.5502 57.1683C49.6431 57.2768 49.713 57.4031 49.7554 57.5395C49.7979 57.6759 49.812 57.8195 49.797 57.9616C49.7821 58.1037 49.7383 58.2412 49.6683 58.3657C49.5984 58.4903 49.5037 58.5992 49.3902 58.6859C49.2767 58.7726 49.1467 58.8353 49.0081 58.87L35.3441 63.154C35.2336 63.1904 35.1174 63.207 35.0011 63.203Z" fill="#23C229"/>
<path d="M39.2003 56.9029C38.9498 56.9025 38.7077 56.8124 38.5178 56.6491C38.3278 56.4858 38.2025 56.2599 38.1645 56.0123C38.1265 55.7647 38.1782 55.5117 38.3104 55.2989C38.4426 55.0861 38.6465 54.9276 38.8853 54.8519L48.5663 51.7999C48.6992 51.7531 48.8402 51.7335 48.9808 51.7423C49.1214 51.751 49.2588 51.788 49.3848 51.851C49.5109 51.914 49.6229 52.0017 49.7143 52.1089C49.8058 52.2161 49.8747 52.3407 49.917 52.475C49.9593 52.6094 49.9741 52.751 49.9605 52.8912C49.947 53.0315 49.9053 53.1675 49.8381 53.2913C49.7708 53.4152 49.6794 53.5242 49.5691 53.6119C49.4589 53.6996 49.3321 53.7642 49.1963 53.8019L39.5433 56.8539C39.4328 56.8904 39.3167 56.907 39.2003 56.9029Z" fill="#23C229"/>
<path d="M39.2003 52.0029C38.9498 52.0024 38.7077 51.9124 38.5178 51.7491C38.3278 51.5858 38.2025 51.3599 38.1645 51.1123C38.1265 50.8647 38.1782 50.6117 38.3104 50.3989C38.4426 50.1861 38.6465 50.0275 38.8853 49.9519L46.2563 47.6489C46.5218 47.5635 46.8103 47.5871 47.0585 47.7144C47.3066 47.8417 47.4939 48.0624 47.5793 48.3279C47.6647 48.5934 47.6412 48.8819 47.5138 49.13C47.3865 49.3781 47.1658 49.5655 46.9003 49.6509L39.5433 51.9539C39.4328 51.9903 39.3167 52.0069 39.2003 52.0029Z" fill="#23C229"/>
<path d="M35.0012 63.147C34.8965 63.1484 34.7923 63.1318 34.6932 63.098L8.19122 54.81C7.97629 54.7452 7.78799 54.6128 7.65432 54.4325C7.52064 54.2522 7.44871 54.0335 7.44922 53.809V19.677C7.44922 19.3986 7.55985 19.1315 7.75676 18.9346C7.95367 18.7377 8.22074 18.627 8.49922 18.627C8.60851 18.6257 8.71728 18.6422 8.82122 18.676L16.0102 20.916C16.2232 20.9853 16.409 21.12 16.5409 21.301C16.6729 21.482 16.7444 21.7 16.7452 21.924V36.358C16.828 36.4929 16.8803 36.6442 16.8985 36.8014C16.9166 36.9586 16.9001 37.1179 16.8502 37.268C16.7552 37.53 16.5611 37.7442 16.3098 37.8646C16.0585 37.9851 15.77 38.0021 15.5062 37.912L15.3452 37.856C15.1404 37.7825 14.9633 37.6476 14.838 37.4697C14.7127 37.2918 14.6454 37.0796 14.6452 36.862V22.694L9.54922 21.098V53.039L33.9792 60.669V28.735L28.2602 26.95V40.6C28.2602 40.8785 28.1496 41.1456 27.9527 41.3425C27.7558 41.5394 27.4887 41.65 27.2102 41.65C26.9317 41.65 26.6647 41.5394 26.4678 41.3425C26.2708 41.1456 26.1602 40.8785 26.1602 40.6V25.522C26.1573 25.3563 26.1938 25.1922 26.2665 25.0432C26.3392 24.8942 26.4462 24.7645 26.5787 24.6648C26.7112 24.5651 26.8654 24.4982 27.0287 24.4696C27.192 24.4409 27.3597 24.4514 27.5182 24.5L35.3442 26.95C35.5519 27.0212 35.7316 27.1565 35.8574 27.3364C35.9832 27.5163 36.0487 27.7315 36.0442 27.951V62.097C36.0456 62.262 36.0076 62.4249 35.9334 62.5723C35.8591 62.7196 35.7507 62.847 35.6172 62.944C35.4385 63.075 35.2228 63.1461 35.0012 63.147Z" fill="#23C229"/>
<path d="M27.2083 41.6711C26.9298 41.6711 26.6628 41.5604 26.4659 41.3635C26.269 41.1666 26.1583 40.8995 26.1583 40.6211V25.6621C26.1317 25.5029 26.1437 25.3396 26.1933 25.1861C26.2325 25.0529 26.2978 24.9288 26.3856 24.8212C26.4733 24.7136 26.5816 24.6246 26.7042 24.5594C26.8267 24.4942 26.9611 24.4542 27.0994 24.4416C27.2376 24.429 27.377 24.4441 27.5093 24.4861C27.7238 24.5548 27.9114 24.689 28.0458 24.8697C28.1801 25.0505 28.2544 25.2689 28.2583 25.4941V40.6001C28.2611 40.7397 28.236 40.8785 28.1845 41.0083C28.133 41.1382 28.0561 41.2564 27.9583 41.3561C27.8605 41.4559 27.7438 41.5351 27.6151 41.5892C27.4863 41.6433 27.348 41.6711 27.2083 41.6711Z" fill="#23C229"/>
<path d="M15.8555 37.968C15.7368 37.9665 15.6188 37.9477 15.5055 37.912L15.3445 37.856C15.1397 37.7825 14.9626 37.6476 14.8373 37.4697C14.712 37.2918 14.6447 37.0796 14.6445 36.862V21.924C14.6445 21.6455 14.7552 21.3785 14.9521 21.1816C15.149 20.9846 15.4161 20.874 15.6945 20.874C15.973 20.874 16.2401 20.9846 16.437 21.1816C16.6339 21.3785 16.7445 21.6455 16.7445 21.924V36.358C16.8273 36.4929 16.8796 36.6442 16.8978 36.8014C16.9159 36.9586 16.8994 37.1179 16.8495 37.268C16.7752 37.4723 16.6401 37.6488 16.4624 37.774C16.2846 37.8991 16.0729 37.9668 15.8555 37.968Z" fill="#23C229"/>
<path d="M35.0017 29.043C34.8656 29.042 34.7311 29.0143 34.6057 28.9614C34.4804 28.9085 34.3667 28.8314 34.2712 28.7346C34.1756 28.6377 34.1001 28.523 34.0489 28.3969C33.9976 28.2709 33.9718 28.136 33.9727 28C33.9727 27.7215 34.0833 27.4544 34.2802 27.2575C34.4771 27.0606 34.7442 26.95 35.0227 26.95C35.3012 26.95 35.5682 27.0606 35.7651 27.2575C35.9621 27.4544 36.0727 27.7215 36.0727 28C36.0672 28.2797 35.9517 28.546 35.7512 28.7412C35.5508 28.9365 35.2815 29.0448 35.0017 29.043Z" fill="#23C229"/>
<path d="M8.51327 20.7199C8.27172 20.7187 8.03799 20.6342 7.85149 20.4806C7.66498 20.3271 7.53711 20.114 7.48942 19.8772C7.44173 19.6404 7.47714 19.3944 7.58969 19.1807C7.70224 18.967 7.88504 18.7986 8.10727 18.7039L34.7073 7.62992C34.9644 7.52224 35.2538 7.52112 35.5117 7.62679C35.7697 7.73247 35.9751 7.93629 36.0828 8.19342C36.1904 8.45055 36.1916 8.73992 36.0859 8.99787C35.9802 9.25583 35.7764 9.46124 35.5193 9.56892L8.91927 20.6429C8.79071 20.6963 8.65247 20.7226 8.51327 20.7199Z" fill="#23C229"/>
<path d="M16.5347 22.9951C16.299 22.9899 16.0719 22.9055 15.89 22.7556C15.7081 22.6056 15.5819 22.3989 15.5318 22.1685C15.4817 21.9382 15.5106 21.6977 15.6137 21.4857C15.7169 21.2738 15.8884 21.1027 16.1007 21.0001L28.1197 16.0021C28.3754 15.9026 28.6598 15.9072 28.9122 16.0149C29.1646 16.1225 29.3648 16.3247 29.47 16.5781C29.5752 16.8315 29.577 17.116 29.4751 17.3707C29.3732 17.6254 29.1756 17.8302 28.9247 17.9411L16.9337 22.9111C16.8076 22.9656 16.6719 22.9941 16.5347 22.9951Z" fill="#23C229"/>
<path d="M27.1825 26.558C26.9739 26.5582 26.7701 26.4956 26.5978 26.3782C26.4254 26.2608 26.2925 26.0941 26.2165 25.9C26.159 25.7716 26.128 25.633 26.1252 25.4923C26.1224 25.3517 26.1479 25.212 26.2001 25.0814C26.2523 24.9508 26.3303 24.8321 26.4293 24.7322C26.5283 24.6323 26.6463 24.5533 26.7764 24.5L37.3604 20.097C37.6176 19.9893 37.9069 19.9882 38.1649 20.0938C38.4229 20.1995 38.6283 20.4033 38.736 20.6605C38.8436 20.9176 38.8448 21.207 38.7391 21.4649C38.6334 21.7229 38.4296 21.9283 38.1725 22.036L27.5884 26.481C27.4596 26.5334 27.3216 26.5596 27.1825 26.558Z" fill="#23C229"/>
<path d="M43.2242 13.062C43.0847 13.0611 42.9467 13.0326 42.8182 12.978L34.7332 9.56203C34.5976 9.51499 34.4731 9.44064 34.3673 9.34358C34.2616 9.24652 34.1769 9.1288 34.1184 8.99771C34.0599 8.86661 34.029 8.72492 34.0274 8.58138C34.0259 8.43785 34.0537 8.29552 34.1094 8.16319C34.165 8.03086 34.2471 7.91133 34.3508 7.81201C34.4544 7.71268 34.5773 7.63565 34.7119 7.58568C34.8464 7.53572 34.9898 7.51388 35.1331 7.5215C35.2765 7.52913 35.4167 7.56607 35.5452 7.63003L43.6372 11.046C43.7674 11.0994 43.8854 11.1784 43.9844 11.2783C44.0834 11.3782 44.1614 11.4969 44.2136 11.6275C44.2658 11.7581 44.2913 11.8978 44.2885 12.0384C44.2857 12.179 44.2546 12.3176 44.1972 12.446C44.1113 12.6313 43.9738 12.7878 43.8013 12.897C43.6288 13.0063 43.4284 13.0635 43.2242 13.062Z" fill="#23C229"/>
<path d="M61.5226 20.7829C61.383 20.782 61.245 20.7534 61.1166 20.6989L42.8186 12.9989C42.6864 12.9488 42.5657 12.8726 42.4638 12.7748C42.3618 12.677 42.2806 12.5596 42.2251 12.4296C42.1696 12.2997 42.1408 12.1599 42.1406 12.0185C42.1404 11.8772 42.1687 11.7373 42.2239 11.6072C42.2791 11.4771 42.3599 11.3595 42.4616 11.2614C42.5633 11.1633 42.6838 11.0867 42.8157 11.0362C42.9477 10.9858 43.0886 10.9625 43.2298 10.9678C43.371 10.973 43.5097 11.0068 43.6376 11.0669L61.9356 18.7669C62.1583 18.8618 62.3415 19.0308 62.4539 19.2452C62.5664 19.4597 62.6013 19.7064 62.5527 19.9436C62.5041 20.1809 62.375 20.394 62.1873 20.5469C61.9995 20.6999 61.7647 20.7833 61.5226 20.7829Z" fill="#23C229"/>
<path d="M27.2081 41.6709C27.0307 41.6704 26.8563 41.6253 26.7009 41.5396C26.5456 41.454 26.4143 41.3306 26.3191 41.1809L20.7191 32.3959C20.5788 32.1613 20.5356 31.8811 20.5986 31.6151C20.6616 31.349 20.8259 31.1181 21.0566 30.9713C21.2873 30.8245 21.5661 30.7735 21.8338 30.8291C22.1015 30.8846 22.3369 31.0424 22.4901 31.2689L28.0901 40.0539C28.1894 40.2129 28.2447 40.3954 28.2502 40.5828C28.2558 40.7701 28.2114 40.9556 28.1216 41.1202C28.0319 41.2847 27.9 41.4225 27.7394 41.5192C27.5789 41.616 27.3955 41.6684 27.2081 41.6709Z" fill="#23C229"/>
<path d="M15.8564 37.968C15.7077 37.9686 15.5606 37.9371 15.4252 37.8754C15.2899 37.8138 15.1695 37.7236 15.0724 37.6109C14.9809 37.5082 14.9107 37.3884 14.8658 37.2584C14.8209 37.1284 14.8021 36.9908 14.8106 36.8535C14.819 36.7162 14.8546 36.582 14.9151 36.4585C14.9756 36.335 15.06 36.2247 15.1634 36.1339L20.9104 31.0449C21.1192 30.8593 21.3933 30.7642 21.6722 30.7806C21.9512 30.797 22.2122 30.9236 22.3979 31.1324C22.5835 31.3413 22.6786 31.6154 22.6622 31.8943C22.6458 32.1733 22.5192 32.4343 22.3104 32.6199L16.5634 37.702C16.3707 37.8783 16.1175 37.9735 15.8564 37.968Z" fill="#23C229"/>
<path d="M37.7986 22.155C37.6491 22.1559 37.5012 22.1249 37.3646 22.064L28.1386 17.913C27.9022 17.7884 27.7221 17.5783 27.6352 17.3256C27.5483 17.0728 27.561 16.7964 27.6708 16.5528C27.7806 16.3091 27.9792 16.1164 28.2261 16.0141C28.473 15.9118 28.7496 15.9074 28.9996 16.002L38.1976 20.146C38.4153 20.2428 38.5935 20.4108 38.7031 20.6223C38.8127 20.8338 38.8472 21.0763 38.8007 21.3099C38.7543 21.5436 38.6299 21.7545 38.4478 21.908C38.2657 22.0616 38.0367 22.1487 37.7986 22.155Z" fill="#23C229"/>
<path d="M57.3157 58.94C55.2169 58.9456 53.1636 58.3286 51.4154 57.1671C49.6672 56.0057 48.3026 54.3519 47.4943 52.4149C46.686 50.478 46.4702 48.3448 46.8743 46.2852C47.2783 44.2256 48.284 42.3321 49.7642 40.8441C51.2444 39.3561 53.1326 38.3404 55.19 37.9255C57.2475 37.5106 59.3817 37.7151 61.3229 38.5132C63.2641 39.3112 64.9251 40.667 66.0957 42.4091C67.2664 44.1511 67.8942 46.2012 67.8997 48.3C67.9035 51.1134 66.7914 53.8134 64.8073 55.808C62.8232 57.8026 60.1291 58.9289 57.3157 58.94ZM57.3157 39.816C55.6299 39.8105 53.9803 40.3057 52.5762 41.2389C51.1722 42.1721 50.0768 43.5012 49.4291 45.0577C48.7814 46.6142 48.6104 48.328 48.938 49.9817C49.2655 51.6355 50.0768 53.1548 51.2689 54.3469C52.461 55.539 53.9803 56.3502 55.634 56.6778C57.2878 57.0053 59.0016 56.8344 60.5581 56.1867C62.1146 55.539 63.4437 54.4436 64.3769 53.0396C65.3101 51.6355 65.8053 49.9859 65.7997 48.3C65.7905 46.0528 64.8937 43.9002 63.3047 42.3111C61.7156 40.7221 59.563 39.8252 57.3157 39.816Z" fill="#23C229"/>
<path d="M56.2034 52.794C55.925 52.7971 55.6563 52.6916 55.4544 52.5L51.7584 48.79C51.5729 48.5909 51.4719 48.3277 51.4767 48.0556C51.4815 47.7836 51.5917 47.5241 51.7841 47.3317C51.9765 47.1393 52.236 47.0291 52.508 47.0243C52.7801 47.0195 53.0433 47.1205 53.2424 47.306L56.9454 51.016C57.1403 51.2137 57.2496 51.4803 57.2496 51.758C57.2496 52.0357 57.1403 52.3022 56.9454 52.5C56.7452 52.6899 56.4793 52.7952 56.2034 52.794Z" fill="#23C229"/>
<path d="M56.2025 52.7939C55.995 52.7918 55.7928 52.7286 55.6209 52.6124C55.449 52.4961 55.3152 52.3318 55.2361 52.14C55.157 51.9481 55.1361 51.7373 55.176 51.5336C55.2159 51.33 55.3149 51.1426 55.4605 50.9949L61.6975 44.7579C61.8966 44.5724 62.1598 44.4714 62.4319 44.4762C62.7039 44.481 62.9634 44.5912 63.1558 44.7836C63.3482 44.976 63.4584 45.2355 63.4632 45.5076C63.468 45.7796 63.367 46.0428 63.1815 46.2419L56.9445 52.4999C56.7443 52.6898 56.4785 52.7951 56.2025 52.7939Z" fill="#23C229"/>
</svg>
