<svg width="70" height="70" viewBox="0 0 70 70" fill="none" xmlns="http://www.w3.org/2000/svg">
<g clip-path="url(#clip0_1_871)">
<path d="M14.5859 54.8333L9.91927 50.1667L7.58594 52.2084L14.5859 58.9167L25.9609 47.8333L23.6277 45.7917L14.5859 54.8333Z" fill="#23C229"/>
<path d="M68.25 39.0833L29.1667 0H5.83333C2.62492 0 0 2.62492 0 5.83333V29.1667L7.87508 37.0417C3.20841 39.9584 0 44.9167 0 51.0417C0 59.7917 7.29159 67.0835 16.0417 67.0835C21.8751 67.0835 27.1251 63.8752 30.0417 59.2084L39.0835 68.2502C41.4168 70.5835 45.2084 70.5835 47.2502 68.2502L68.2502 47.2502C70.5833 44.9167 70.5833 41.4167 68.25 39.0833ZM16.0417 64.1667C8.75015 64.1667 2.91682 58.3333 2.91682 51.0417C2.91682 43.7502 8.75015 37.9168 16.0417 37.9168C23.3333 37.9168 29.1667 43.7502 29.1667 51.0417C29.1667 58.3333 23.3333 64.1667 16.0417 64.1667ZM66.2084 45.2084L45.2084 66.2084C44.0417 67.3749 42.2917 67.3749 41.1251 66.2084L31.2086 56.2917C31.7919 54.5417 32.0835 53.0835 32.0835 51.0417C32.0835 42.2917 24.7919 35 16.0417 35C14.2917 35 12.5417 35.2916 11.0833 35.8749L2.91667 27.7083V5.83333C2.91667 4.08333 4.37492 2.91667 5.83333 2.91667H27.7084L66.2084 41.1249C67.3749 42 67.3749 44.0416 66.2084 45.2084Z" fill="#23C229"/>
<path d="M16.0416 8.75C11.9583 8.75 8.75 11.9584 8.75 16.0416C8.75 20.1248 11.9583 23.3333 16.0416 23.3333C20.1249 23.3333 23.3332 20.1249 23.3332 16.0417C23.3332 11.9586 20.1248 8.75 16.0416 8.75ZM16.0416 20.4167C13.7083 20.4167 11.6665 18.3749 11.6665 16.0416C11.6665 13.7083 13.7083 11.6667 16.0416 11.6667C18.3749 11.6667 20.4167 13.7084 20.4167 16.0417C20.4167 18.3751 18.3748 20.4167 16.0416 20.4167Z" fill="#23C229"/>
</g>
<defs>
<clipPath id="clip0_1_871">
<rect width="70" height="70" fill="white"/>
</clipPath>
</defs>
</svg>
